<svg xmlns="http://www.w3.org/2000/svg" width="727" height="742" fill="none"><path fill="#030303" d="M534.151 491.938c-19.79 14.21-42.021 19.958-66.75 16.996-25.179-3.012-43.316-17.134-59.21-35.83-5.594 3.046-11.292 5.98-16.82 9.202-8.806 5.125-17.442 10.553-26.277 15.628-4.083 2.344-8.663 3.233-13.276 1.721-2.127-.701-3.119 0-4.287 1.572-9.716 13.085-17.349 27.218-22.099 42.868-2.106 6.934-4.398 13.808-6.564 20.72-.86 2.747-.562 5.042 1.4 7.58 4.127 5.351 5.985 11.7 6.376 18.474.777 13.488-2.519 26.242-6.9 38.797-7.462 21.398-14.654 42.901-24.563 63.351-.27.557-.418 1.175-.534 1.5h19.796c10.482.011 20.964.265 31.187 2.841 3.146.795 6.321 2.069 9.043 3.812 4.414 2.819 5.225 7.993 1.758 11.916-2.248 2.543-5.175 4.711-8.184 6.321-9.198 4.943-19.255 7.591-29.324 10.073-35.375 8.722-71.236 13.516-107.713 12.346-8.564-.276-17.129-1.776-25.605-3.222-3.036-.518-6.084-2.151-8.663-3.944-4.227-2.94-4.789-7.921-1.35-11.766 2.033-2.273 4.635-4.193 7.302-5.71 8.052-4.595 16.957-6.873 26.662-9.229-1.322-.667-2.121-1.086-2.926-1.478-29.594-14.503-57.414-31.659-80.852-55.148-6.14-6.156-11.695-12.941-17.14-19.743-8.018-10.018-9.303-21.36-5.087-33.286 3.467-9.808 7.887-19.214 14.318-27.467 10.256-13.162 23.268-22.325 39.272-27.488 25.009-8.076 47.566-3.415 68.315 12.081.799.596 1.603 1.181 2.595 1.903.97-1.787 1.88-3.442 2.767-5.108 2.535-4.761 6.459-7.877 11.38-9.935.794-.331 1.665-1.319 1.852-2.146 2.574-11.408 6.073-22.512 11.044-33.098 7.859-16.737 16.241-33.176 28.839-47.26-.766-.64-1.355-1.18-1.995-1.655-19.586-14.618-39.15-29.264-57.006-46.034-.634-.596-2.182-.811-3.031-.48-15.337 5.908-31.264 8.611-47.626 8.771-11.469.116-22.954.336-34.274-2.212-8.558-1.925-16.676-4.959-24.513-8.876-1.041-.519-2.568-.634-3.703-.325-12.14 3.309-23.527 1.842-33.028-6.609-5.142-4.573-9.054-10.531-13.573-15.816-.585-.684-1.51-1.55-2.26-1.539-9.562.182-18.021-3.26-25.935-8.103-16.412-10.046-28.553-23.848-35.166-42.074-3.02-8.325-2.601-16.445 3.637-23.528.507-.573.673-1.627.65-2.449-.34-12.837 4.19-22.954 15.944-29.171.656-.347 1.356-1.236 1.433-1.942 2.1-19.71 19.41-34.196 39.03-32.116 12.581 1.335 23.47 6.592 31.72 16.428 2.591 3.089 4.448 6.796 6.972 10.724 10.201-.16 19.95 3.094 27.864 11.59-.457-1.236-.799-2.533-1.389-3.702-15.695-31.057-24.557-64.134-28.271-98.573-2.089-19.346-1.885-38.814 2.684-57.878 5.367-22.391 15.568-42.72 29.406-60.918 17.625-23.175 40.011-40.833 67.296-51.32 16.5-6.343 33.92-8.346 51.726-7.265 22.568 1.368 44.486 5.622 65.428 14.062 19.69 7.938 37.287 19.318 52.173 34.648.115.122.314.166.402.204 4.023-3.514 8.013-6.994 12.003-10.48 12.918-11.315 27.704-19.529 43.581-25.784 13.734-5.412 27.71-10.184 42.209-13.13 18.523-3.762 37.161-5.82 56.037-2.725 7.952 1.302 16.048 1.98 23.868 3.829 33.683 7.938 61.762 25.022 84.093 51.71 12.35 14.757 22.639 30.694 31.347 47.817 8.173 16.064 10.889 33.242 11.755 50.895.7 14.265-.336 28.426-3.125 42.123 4.607 1.837 9.352 3.321 13.728 5.539 13.392 6.779 22.727 17.702 30.327 30.378 7.815 13.03 11.485 27.252 11.485 42.262 0 7.37-1.708 14.74-2.651 22.104-.093.728-.17 1.462-.33 2.174-.761 3.398-.314 6.255 1.62 9.51 3.736 6.3 2.695 13.333.904 20.102-1.587 6.002-4.233 11.557-8.146 16.422-1.868 2.323-4.012 4.43-5.808 6.802-.551.723-.546 2.013-.491 3.028.469 8.987 1.439 17.967 1.411 26.943-.038 11.915-3.031 23.257-8.619 33.848-4.409 8.352-11.204 14.007-19.928 17.278-6.106 2.289-11.915 1.346-17.079-2.918a2562.204 2562.204 0 0 0-4.084 2.929c4.172 7.568 8.862 14.767 12.285 22.534 8.09 18.381 13.452 37.578 13.121 57.846-.226 13.725-4.028 26.633-11.771 38.173-3.929 5.859-9.49 9.08-16.225 11.017-23.747 6.807-43.228-.955-60.39-17.14-13.21-12.456-22.242-27.692-29.313-44.22-1.62-3.784-2.976-7.678-4.613-11.937-10.129 7.795-20.473 10.658-31.578 1.357v.028Zm167.855-201.179c5.225-1.192 10.499-2.19 15.652-3.635 4.365-1.225 4.519-1.793 4.651-6.454.044-1.65.358-3.294.303-4.932-.11-3.073-.397-6.145-.623-9.406-1.229.464-1.972.817-2.761 1.026-6.481 1.755-12.961 3.481-19.448 5.219-1.543-3.216-4.277-3.531-7.352-3.04-.54.089-1.091.16-1.636.133-6.184-.276-12.378-.453-18.545-.916-3.709-.276-5.721 1.186-5.809 4.827l-.413.662h-15.359c1.003 2.449 2.176 5.395 3.433 8.302.226.524.744 1.181 1.234 1.291 3.715.827 7.457 1.533 11.188 2.278.204 3.917 2.287 6.725 5.825 7.883 6.602 2.168 13.348 4.154 20.413 3.465 2.034-.199 3.962-1.534 5.935-2.345 1.103-1.456 2.205-2.913 3.307-4.363l.005.005Zm-632.474 35.52c-.26-.027-.524-.055-.783-.077.144.155.287.315.43.469 2.061 4.027 4.122 8.059 6.277 12.268 1.88-.143 4.403-.33 6.746-.507.931-2.477 1.83-4.882 2.733-7.287.347.016.695.033 1.047.044.998 3.199 2.205 6.349 2.932 9.604.672 3.017-1.014 4.325-4.155 3.895-3.329-.458-6.685-.701-9.98-1.032-3.428 15.049-19.884 24.576-34.869 18.91-3.323-1.257-6.492-2.934-9.732-4.424-1.031-.474-2.05-.954-3.076-1.434 6.15 7.414 13.728 12.599 22.337 16.301 9.81 4.215 19.338 3.801 28.326-2.129 4.36-2.874 8.449-6.157 12.62-9.307 2.635-1.991 5.131-2.101 6.895-.16 1.84 2.025 1.51 4.761-.882 7.072-.463.447-.975.839-1.471 1.242-6.338 5.185-12.858 10.084-21.383 13.52 3.698 4.143 6.79 8.264 10.559 11.613 2.645 2.35 6.04 4.175 9.413 5.328 10.487 3.597 19.311-.369 26.998-7.259 8.124-7.276 13.833-16.45 18.297-26.275 2.006-4.424 3.158-9.383 3.847-14.221.948-6.653-3.114-13.604-8.823-16.583-6.999 12.865-18.716 20.124-24.084 17.09 2.051-5.24 5.462-9.378 9.606-13.179 6.476-5.935 9.766-13.614 10.548-22.38.733-8.197-1.873-15.644-5.5-22.705-2.81-5.473-7.346-9.152-13.347-11.237-6.476-2.251-12.643-1.473-18.848.629-9.672 3.282-17.955 8.401-22.76 17.873-2.123 4.181-2.668 8.473.407 12.467 3.273 4.253 7.622 6.217 13.028 5.461 4.607-.645 9.044-1.936 12.61-5.025 3.995-3.459 7.704-7.249 11.622-10.801.794-.718 2.298-1.655 2.893-1.352.877.447 1.797 1.986 1.687 2.94-.27 2.317-.656 4.844-1.824 6.791-7.749 12.92-26.282 21.586-40.358 13.857h.017Zm52.2 258.053c5.115-.971 10.212-2.692 15.343-2.791 28.878-.574 53.573 10.167 74.735 29.281 13.017 11.756 23.444 25.822 33.276 40.275 10.229 15.027 22.011 28.697 35.045 41.33 1.085 1.053 2.226 2.046 3.543 3.243.788-1.528 1.439-2.725 2.034-3.95 10.289-21.177 17.9-43.397 25.621-65.579.595-1.715-.127-2.559-1.075-3.58-11.766-12.66-25.681-22.463-40.925-30.384-5.009-2.604-10.554-3.834-16.285-4.237.992 4.209 2.127 8.098 2.794 12.064.854 5.125 2.287 10.294.215 15.49-.893 2.235-2.193 3.873-4.888 3.531-2.117-.27-3.323-2.229-3.406-4.954-.105-3.475-.121-6.984-.617-10.409-1.02-7.017-2.42-14.001-6.625-19.937-8.316-11.728-18.765-21.111-31.528-27.791-9.397-4.921-19.272-8.275-30.063-7.37-14.345 1.202-27.632 5.262-39.128 14.475-7.407 5.935-13.673 12.743-18.484 20.907l-.116.596.545-.199-.011-.011Zm475.063-387.258c3.45-1.098 6.839-2.461 10.361-3.244 8.823-1.958 17.768-2.328 26.778-1.545 4.905.431 9.826.717 15.282 1.109.656-4.325 1.709-8.699 1.907-13.107.623-13.758-.226-27.4-2.899-40.987-1.466-7.458-3.158-14.756-6.613-21.497-6.602-12.881-12.483-26.198-21.923-37.44-5.015-5.97-9.468-12.451-14.836-18.061-8.299-8.672-17.624-16.202-28.161-22.121-8.581-4.816-17.525-8.6-27.087-11.11-9.798-2.57-19.559-5.07-29.737-5.577-4.288-.215-8.548-.955-12.83-1.114-6.476-.249-13.017-.74-19.438-.16-9.065.816-18.059 2.454-27.059 3.878-2.259.358-4.436 1.24-6.652 1.88-7.776 2.086-15.723 3.675-23.289 6.356-14.472 5.124-27.787 12.555-40.473 21.27-10.78 7.404-20.309 16.197-29.655 25.189-5.511 5.301-10.229 11.435-15.227 17.255-1.268 1.473-2.866 2.61-4.47 1.622-1.24-.761-2.463-2.653-2.474-4.055-.017-2.173.496-4.694 1.675-6.476 4.282-6.46 8.818-12.77 13.524-18.932 1.411-1.848 1.731-2.984-.071-4.535-3.665-3.144-7.06-6.652-10.951-9.471-8.52-6.168-17.249-12.065-27.136-15.932-14.593-5.704-29.771-9.168-45.218-11.38-19.201-2.747-38.429-3.95-57.453 1.351-4.051 1.131-8.2 2.18-11.964 3.983-17.724 8.501-33.948 19.413-46.602 34.494-16.29 19.418-27.004 41.887-32.118 66.843-2.86 13.957-3.059 28.09-2.359 42.261.601 12.158 3.092 24.002 5.809 35.818 3.968 17.267 8.779 34.291 16.279 50.36 5.914 12.666 12.191 25.21 19.135 37.329 11.33 19.782 23.857 38.814 38.434 56.417 18.429 22.253 38.682 42.67 61.608 60.284 14.709 11.303 29.666 22.286 44.667 33.203 4.75 3.459 9.997 6.239 15.017 9.328.138.121.265.259.414.359 10.939 7.083 21.851 14.199 32.856 21.172.866.546 2.591.54 3.528.044 8.498-4.474 16.902-9.135 25.35-13.703 12.025-6.504 24.243-12.671 36.054-19.545 15.166-8.831 30.145-18.016 44.959-27.438 17.613-11.21 34.703-23.186 49.698-37.854 12.587-12.307 25.12-24.669 37.552-37.131 7.76-7.778 15.492-15.612 22.866-23.754 7.363-8.131 14.439-16.544 21.322-25.083 7.793-9.665 15.238-19.616 22.799-29.463.209-.271.077-.811.116-1.385-.937.094-1.653.177-2.37.232-7.396.563-14.792 1.561-22.187 1.572-10.548.022-19.416-4.088-25.886-12.726-.424-1.876-.898-3.74-1.267-5.622-1.141-5.825.171-11.54 1.207-17.178 1.967-10.674 6.795-19.98 15.287-26.887 4.282-3.481 9.259-6.101 13.921-9.113v.017Zm104.87 160.472c-11.348 3.481-22.193 1.733-32.741-2.399-2.491-.977-4.9-2.913-6.575-5.02-1.791-2.251-.391-4.711 2.524-4.722 2.326-.006 4.668.706 6.971 1.241 4.635 1.076 9.193 2.857 13.877 3.26 9.27.795 18.093-.287 24.188-8.865 4.371-6.145 7.275-12.748 7.716-20.3.115-1.986-.342-4.005-.573-6.35-8.796 4.524-17.459 6.03-26.531 4.761-14.934-2.08-26.651-9.83-36.356-21.018-2.469-2.846-4.183-3.282-7.137-1.059-9.793 7.376-14.246 21.818-1.824 31.256 1.29.982 2.734 2.157 3.318 3.575.545 1.313.595 3.497-.171 4.501-.766 1.01-2.877 1.523-4.293 1.357-1.521-.176-3.153-1.141-4.321-2.217-2.948-2.709-5.66-5.665-8.674-8.733-15.078 8.076-23.946 21.156-27.561 38.097 1.488-.861 2.723-1.953 4.034-2.94 2.392-1.804 5.12-1.777 6.735-.011 1.736 1.903 1.466 4.611-.821 6.867-1.307 1.286-2.756 2.433-4.178 3.592-8.911 7.287-11.832 17.134-11.948 28.139-.016 1.346.347 2.742.772 4.038 2.215 6.802 9.705 9.35 14.824 4.457 3.842-3.668 6.597-8.484 9.76-12.842 1.891-2.598 4.156-3.58 6.267-2.482 2.121 1.103 2.948 3.651 1.68 6.515-1.146 2.587-2.402 5.262-4.227 7.375-2.088 2.422-2.573 5.235-3.058 8.054-.876 5.108 4.679 9.941 9.495 8.319 3.731-1.258 6.955-3.321 8.89-6.962 1.504-2.835 2.959-5.704 4.563-8.49 1.626-2.819 3.979-3.894 6.073-2.973 2.006.882 2.838 3.519 2.006 6.526-.22.794-.507 1.589-.904 2.306-1.863 3.37-3.692 6.763-5.704 10.045-1.4 2.278-.997 3.812 1.676 4.308 1.273.238 2.761.061 4.001-.375 6.911-2.405 11.639-7.188 14.339-13.923 1.125-2.803 1.676-5.842 2.861-8.611.837-1.959 1.989-3.994 3.543-5.384 2.293-2.052 4.343-1.374 5.17 1.577.468 1.683.567 3.718.077 5.368-1.742 5.842-3.803 11.584-5.958 17.994 1.621.21 3.863 1.186 5.539.58 3.466-1.258 6.889-2.99 9.859-5.175 6.911-5.08 9.49-12.908 11.766-20.681 4.1-13.989 3.004-28.183 1.009-42.565l.022-.011Zm-93.264 146.969c-.766 3.166-2.695 5.566-5.031 7.618-3.031 2.665-6.239 5.136-9.314 7.756-3.003 2.565-2.926 2.571-.711 5.704 4.911 6.945 10.747 12.997 17.167 18.558 7.407 6.415 15.888 10.586 25.445 12.356 8.299 1.534 7.71 2.008 9.655-6.261 2.783-11.816 2.943-23.842 1.196-35.884-2.067-14.233-5.147-28.156-11.595-41.158-5.302-10.686-10.323-21.514-15.817-32.095-3.207-6.173-7.126-11.976-10.653-17.989-.975-1.66-2.309-2.3-4.155-2.642-8.438-1.561-13.805-6.598-15.69-14.966-1.929-8.573-.281-16.881 3.202-24.719 1.57-3.536 2.033-6.83 1.135-10.454-4.96-.508-9.495.441-14.61 2.835-8.878 4.16-16.764 9.831-24.392 15.899-2.413 1.919-4.761 3.911-7.208 5.93 8.669 6.504 16.213 13.67 21.592 22.877 2.502 4.28 5.252 8.434 7.451 12.864 8.575 17.31 9.904 34.395-2.199 50.861-.391.53-.821 1.363-.678 1.903.551 1.992 1.34 3.917 2.139 6.151 4.69-5.638 8.966-11.408 17.431-11.027-1.378 3.404-2.882 6.697-4.833 9.698-2.149 3.304-4.762 6.3-7.054 9.51-1.191 1.666-1.957 3.509-.27 5.119 3.637-3.265 6.988-6.708 10.796-9.527 2.094-1.55 4.883-2.498 7.489-2.923 3.081-.497 3.803.695 2.304 3.42-1.174 2.135-2.778 4.071-4.387 5.925-3.373 3.867-6.916 7.585-10.283 11.457-.54.624-.518 1.732-.755 2.621 15.028-9.687 17.569-10.818 22.655-9.428l-.022.011ZM256.02 712.6c.066-.254.138-.507.204-.767-9.727-6.724-17.828-15.148-25.312-24.2-8.487-10.255-16.831-20.632-25.384-30.832-11.551-13.774-24.739-25.574-41.024-33.606-12.825-6.321-26.288-9.62-40.622-9.113-4.42.155-8.647.977-12.742 3.283.887 1.792 1.62 3.464 2.513 5.042 4.475 7.921 10.62 14.519 16.974 20.89 17.558 17.609 37.541 31.924 59.233 44.043 17.36 9.698 35.155 18.238 54.438 23.324 3.814 1.004 7.809 1.307 11.722 1.936Zm22.342-9.4c-16.533-14.949-30.493-31.907-43.152-50.072-6.547-9.4-13.772-18.387-21.294-27.031-13.243-15.214-29.473-26.153-49.021-31.703-15.299-4.347-30.719-6.504-46.348-1.555-.744.237-1.879.452-2.094.981-1.901 4.7-3.637 9.472-5.418 14.222 8.3-2.356 16.076-3.178 24.012-2.703 12.124.717 23.339 4.639 34.108 9.962 17.536 8.667 31.661 21.514 44.061 36.414 8.459 10.167 16.72 20.505 25.224 30.633 7.159 8.528 14.659 16.737 24.309 22.601 9.562 5.809 5.963 6.035 15.122-1.026.133-.105.204-.287.491-.723Zm360.967-434.021c-2.695 3.994-4.86 7.866-7.643 11.231-14.109 17.052-28.3 34.031-42.623 50.895a178.719 178.719 0 0 1-13.844 14.558c-12.041 11.314-24.413 22.275-36.455 33.595-20.11 18.904-41.36 36.369-64.066 52.058-.634.441-1.251.916-1.841 1.352 3.753 3.839 7.336 7.502 10.923 11.165 1.196 1.225 2.315 1.296 3.819.232 9.066-6.405 18.209-12.705 27.308-19.06 1.003-.7 1.89-1.577 3.097-2.592-1.565-.949-2.794-1.71-4.045-2.444-1.516-.888-2.519-.861-2.805 1.28-.105.778-.794 1.621-1.45 2.146-2.144 1.721-4.37 3.343-6.613 4.942-1.505 1.07-3.075 2.041-4.762 3.15-2.132-9.67 3.098-15.948 9.722-21.012 4.282-3.271 9.198-5.693 13.706-8.677 4.965-3.294 9.903-6.653 14.654-10.244 8.123-6.14 15.866-12.82 24.193-18.657 10.135-7.099 20.843-13.184 34.058-12.031 5.059-19.517 16.021-34.219 33.86-43.348 0-.651.022-1.109 0-1.561-.755-12.804 7.583-25.199 19.636-29.37 1.879-.651 3.516-1.936 2.475-4.336a98.446 98.446 0 0 0-3.814-7.85c-1.675-3.072-4.315-4.904-7.495-5.417l.005-.005Zm14.522 286.357c6.801-.584 12.031-3.149 15.585-8.859 5.511-8.843 8.449-18.552 9.27-28.807 1.08-13.46-1.896-26.44-5.511-39.315-3.935-14.023-10.378-26.799-18.545-38.759-.551-.811-1.802-1.649-2.7-1.627-5.578.149-10.058-1.677-12.995-6.46-2.216.601-4.288 1.401-6.426 1.683-2.161.287-4.387.06-6.619.06 2.965 5.975 5.996 12.037 8.988 18.116 6.311 12.832 13.1 25.464 16.66 39.454 5.407 21.233 7.854 42.587 2.298 64.509l-.005.005Zm-338.35 58.519c.749-6.482 1.708-12.462 2.077-18.475.695-11.435-4.006-20.085-14.141-25.651-15.348-8.435-31.584-14.619-48.486-19.071-4.674-1.23-9.606-1.39-13.177 2.373-2.381 2.504-3.863 5.913-5.478 9.052-.364.712.094 2.245.694 2.979a252.094 252.094 0 0 0 9.705 11.248c.805.871 2.166 1.605 3.334 1.704 10.08.889 19.818 2.985 28.476 8.457 7.44 4.7 14.814 9.538 21.928 14.718 5.015 3.652 9.546 7.977 15.073 12.666h-.005Zm206.338-201.129c7.716 2.885 12.913 8.379 17.035 14.707 3.478 5.334 6.646 11.06 8.818 17.029 4.05 11.143 5.467 22.645 1.295 34.224-1.229 3.409-2.453 6.801-6.966 7.166 2.204 2.399 7.286 3.221 10.686 1.726 8.955-3.95 15.155-10.944 18.517-19.765 3.218-8.451 3.185-17.542-.226-26.154-3.803-9.593-9.071-18.446-15.447-26.534-4.437-5.626-9.821-10.376-16.258-14.204-5.698 3.856-11.441 7.745-17.454 11.816v-.011ZM24.518 354.998c.077-.734.192-1.032.12-1.269-.583-1.958-1.168-4.032.706-5.527 1.968-1.567 4.172-.949 6.233.055.904.441 1.698 1.114 2.613 1.528 3.488 1.583 6.888 3.47 10.526 4.578 7.241 2.207 15.32-1.274 19.244-7.789 1.968-3.266 2.331-6.757.391-9.94-1.934-3.178-4.177-6.355-6.921-8.81-9.81-8.782-21.631-13.046-34.632-13.736-10.46-.552-15.728 6.664-12.67 16.798 2.017 6.669 5.39 12.654 9.64 18.149 1.487 1.919 3.025 3.8 4.75 5.968v-.005Zm45.108-68.172c5.494-5.605 12.328-8.871 19.536-11.452 1.659-.596 1.852-1.694 1.312-3.007-.408-.998-1.108-1.903-1.78-2.758-7.495-9.532-17.52-14.276-29.413-15.043-11.694-.75-24.695 10.001-26.061 21.337 13.661-1.704 25.35 3.255 36.411 10.923h-.005Zm560.048-76.938c-5.384.431-10.785.728-16.153 1.341-4.078.469-5.913 2.151-5.759 4.623.16 2.631 2.26 3.767 6.553 3.828 7.886.105 15.833-.243 23.648.596 25.659 2.741 46.199 13.636 57.976 37.875.485.999 2.017 1.931 3.174 2.086 3.896.518 6.961-3.939 4.85-7.519-3.378-5.743-6.707-11.734-11.187-16.566-16.941-18.281-38.682-25.458-63.102-26.258v-.006ZM63.508 293.815c-4.965-3.541-10.123-6.289-15.839-7.828-10.41-2.802-19.84-1.191-27.648 6.719-3.472 3.52-4.382 8.01-4.553 12.666 17.145-1.76 31.91 3.602 46.078 13.615-4.81-9.108-3.141-17.289 1.957-25.177l.005.005Zm206.075 251.693c4.232-27.61 15.899-51.882 31.98-74.384l-6.244-4.065c-14.527 14.761-31.787 54.027-33.568 76.308 2.332.64 4.696 1.286 7.832 2.141Zm-103.25-201.962-31.021-48.561c1.405 5.996 3.284 11.226 3.698 16.571.418 5.378-.618 10.873-1.009 16.18 1.378.882 3.4 1.638 4.64 3.078 2.48 2.885 4.536 6.14 6.746 9.256.468.662.667 1.81 1.262 2.047 5.026 1.986 10.091 4.093 15.684 1.423v.006Zm14.516 19.462c-.793-1.065-1.394-1.755-1.868-2.527-2.133-3.47-4.596-6.206-9.297-5.434-1.273.21-2.695-.391-4.034-.673-2.86-.595-5.688-1.384-8.57-1.787-1.879-.265-3.45.701-4.006 2.631-.546 1.909.16 3.575 1.945 4.381 8.101 3.64 16.506 5.24 25.825 3.409h.005Z"/><path fill="#CE2834" d="M320.571 460.577c-5.021-3.09-10.267-5.87-15.018-9.329-15.001-10.917-29.958-21.9-44.667-33.203-22.926-17.62-43.179-38.036-61.608-60.284-14.576-17.597-27.103-36.634-38.434-56.416-6.944-12.125-13.221-24.664-19.134-37.33-7.501-16.069-12.312-33.093-16.28-50.359-2.717-11.816-5.208-23.655-5.808-35.818-.7-14.172-.502-28.305 2.358-42.262 5.115-24.956 15.828-47.424 32.119-66.842C166.752 53.646 182.982 42.74 200.7 34.24c3.764-1.804 7.914-2.858 11.965-3.983 19.024-5.302 38.252-4.099 57.452-1.352 15.448 2.207 30.625 5.677 45.218 11.38 9.893 3.868 18.617 9.765 27.137 15.932 3.896 2.819 7.291 6.327 10.95 9.472 1.802 1.544 1.483 2.686.072 4.534-4.707 6.162-9.242 12.467-13.524 18.933-1.18 1.781-1.692 4.302-1.676 6.476.011 1.401 1.235 3.293 2.475 4.054 1.603.982 3.207-.148 4.469-1.621 4.999-5.82 9.716-11.954 15.227-17.256 9.347-8.992 18.875-17.78 29.655-25.188 12.687-8.716 26.001-16.146 40.473-21.271 7.567-2.676 15.514-4.27 23.29-6.355 5.357-.105 10.713-.325 16.065-.287 5.946.044 11.914.105 17.839.59 4.712.387 9.484 1.016 14.031 2.262 6.784 1.86 13.452 4.204 20.071 6.614 9.711 3.536 19.377 7.172 27.241 14.354 3.566 3.255 7.622 5.963 11.38 9.014 1.334 1.081 2.337 2.582 3.676 3.657 9.672 7.773 16.919 17.548 22.662 28.388 3.207 6.051 5.439 12.616 8.195 18.91 4.045 9.246 6.227 19.021 7.01 28.967.799 10.134.589 20.356.661 30.539.022 2.626-.259 5.329-.893 7.877-1.515 6.107-3.328 12.142-5.02 18.205-4.663 3.011-9.639 5.637-13.921 9.113-8.498 6.901-13.326 16.212-15.288 26.887-1.041 5.643-2.348 11.352-1.207 17.178.369 1.886.843 3.751 1.268 5.621-2.205 2.813-4.393 5.638-6.619 8.429-8.509 10.663-17.404 21.04-25.45 32.045-8.173 11.171-17.354 21.354-27.417 30.749-7.898 7.375-16.043 14.486-24.216 21.558-10.317 8.925-20.567 17.945-31.231 26.446-10.234 8.158-20.909 15.765-31.485 23.489-10.73 7.833-21.438 15.705-32.404 23.196-8.625 5.892-17.47 11.502-26.509 16.726-7.919 4.578-16.279 8.39-24.391 12.643-5.831 3.057-11.574 6.278-17.36 9.423v-.011ZM267.67 287.46c1.125 3.895 2.139 7.673 3.301 11.408 3.864 12.418 10.46 23.164 20.094 31.918 18.197 16.533 41.58 16.152 58.907-.849 9.694-9.516 15.888-21.139 20.132-33.877 1.554-4.661 2.678-9.46 4.034-14.32 3.4.38 6.498 2.973 10.603 1.517-5.781-7.37-12.697-12.87-19.553-18.414-1.543-1.247-3.428-2.405-5.494-.778-2.122 1.671-1.577 3.657-.568 5.682.116.237.105.535.22 1.164-3.135 1.098-6.233 2.659-9.501 3.232-9.374 1.639-18.781 3.448-28.249 4.138-12.317.899-24.508-.497-36.197-5.026-2.623-1.015-4.133-2.184-3.422-5.318.187-.81-.711-2.471-1.455-2.73-.772-.27-2.304.414-2.932 1.158-4.298 5.103-8.525 10.272-12.615 15.546-2.364 3.05-4.431 6.332-6.629 9.51.242.281.485.563.722.844l8.597-4.799.005-.006ZM217.459 51.285c-.43.028-1.526.078-2.623.16a11.39 11.39 0 0 0-1.361.205c-10.356 1.985-19.691 6.377-28.25 12.395-21.928 15.424-37.414 35.945-47.213 60.796-3.174 8.049-5.533 16.39-5.379 25.166.116 6.813 5.274 12.385 11.375 12.661 6.757.303 12.4-4.386 13.293-11.381 1.559-12.241 5.715-23.588 12.35-33.865 12.951-20.058 28.09-37.479 53.402-42.008 4.017-.717 6.916-3.767 8.184-7.839 2.733-8.798-3.362-16.317-13.778-16.29Zm68.916 160.026c.264-.044.534-.082.799-.127-1.389-8.473-2.436-17.018-4.277-25.392-1.377-6.277-4.265-12.07-8.768-16.874-6.04-6.449-14.604-6.929-21.019-.911-7.704 7.232-10.366 16.837-11.86 26.832-1.405 9.411-1.08 18.85-.016 28.289 1.074 9.543 3.621 18.441 9.831 26.087 7.71 9.493 22.072 8.17 27.352-2.786 5.334-11.072 7.881-22.833 7.958-35.123v.005Zm105.112-1.765c-.513-6.029-.976-12.064-1.565-18.088-.149-1.534-.662-3.045-1.08-4.54-2.012-7.183-4.393-14.205-9.639-19.799-6.432-6.868-14.88-7.232-21.598-.728-6.161 5.969-8.884 13.758-10.603 21.906-2.216 10.525-2.023 21.183-.926 31.808.942 9.19 3.031 18.016 8.757 25.673 3.858 5.158 8.707 8.219 15.117 7.85 6.133-.353 10.713-3.779 13.386-9.229 5.379-10.95 7.93-22.612 8.14-34.842l.011-.011Zm11.22-135.301c.033 5.985 3.538 10.63 8.928 11.617 5.296.971 9.507-1.301 13.1-4.893 9.413-9.405 21.025-14.872 33.524-18.634 3.742-1.126 7.776-1.275 11.567-2.267 8.774-2.3 11.739-13.543 5.506-20.113-4.343-4.579-9.804-4.794-15.321-3.807-18.528 3.321-34.978 11.237-49.401 23.307-4.546 3.807-7.919 8.44-7.908 14.784l.005.006Zm-1.036 196.881c8.118.298 20.518-3.955 26.31-9.058 2.844-2.51 5.23-5.406 4.359-9.466-.755-3.547-3.56-5.357-6.878-6.416-5.219-1.671-10.46-1.087-15.69-.154-6.751 1.208-13.033 3.602-18.417 7.96-2.965 2.4-5.236 5.434-4.525 9.444.727 4.121 4.018 5.969 7.798 6.791 2.304.502 4.69.612 7.038.899h.005Zm-165.27 4.705c4.734-.402 9.699-.926 14.224-3.563 6.056-3.531 6.69-10.669.909-14.608-2.822-1.919-6.046-3.497-9.314-4.457-7.93-2.333-15.938-2.278-23.598 1.203-2.937 1.335-5.544 3.398-6.062 6.956-.601 4.143 1.488 6.94 4.745 9.212 5.676 3.95 12.168 4.783 19.085 5.257h.011Zm172.683-137.954c-.463-1.501-.656-2.394-1.009-3.222-1.912-4.413-5.054-7.789-8.988-10.47-12.643-8.617-31.518-6.945-43.648.336-2.535 1.523-3.158 4.116-1.846 6.388 1.196 2.075 3.626 2.582 6.288 1.551 3.825-1.479 7.605-3.349 11.584-4.072 11.722-2.129 22.392-.833 28.878 11.066.215.392.529.911.893 1.004 1.593.403 3.428 1.28 4.767.817 1.328-.458 2.171-2.323 3.081-3.398Zm-124.881-10.912c-.622-.794-1.504-2.554-2.92-3.619-3.897-2.934-8.493-4.324-13.304-4.644-11.843-.795-22.452 2.752-31.694 10.051-2.943 2.322-5.318 5.444-7.633 8.445-1.35 1.749-.568 3.768 1.02 5.169 1.614 1.434 3.516 1.49 5.345.359.678-.42 1.262-1.054 1.769-1.688 4.949-6.146 11.375-10.018 18.898-11.999 7.572-1.991 14.94-2.134 21.868 2.615 2.81 1.931 6.508-.375 6.646-4.694l.005.005Z"/><path fill="#A41E28" d="M320.571 460.577c5.781-3.145 11.529-6.366 17.36-9.423 8.112-4.253 16.472-8.065 24.391-12.643 9.039-5.224 17.884-10.834 26.509-16.726 10.966-7.491 21.674-15.363 32.404-23.197 10.576-7.723 21.251-15.33 31.485-23.489 10.664-8.495 20.914-17.52 31.231-26.445 8.173-7.072 16.318-14.183 24.216-21.558 10.063-9.4 19.244-19.578 27.417-30.749 8.046-11 16.941-21.382 25.45-32.045 2.226-2.791 4.414-5.621 6.619-8.429 6.47 8.639 15.337 12.743 25.885 12.726 7.396-.016 14.792-1.009 22.188-1.572.722-.055 1.438-.143 2.369-.231-.038.573.094 1.114-.115 1.384-7.567 9.847-15.013 19.799-22.8 29.463-6.883 8.545-13.959 16.952-21.322 25.084-7.374 8.142-15.1 15.975-22.865 23.753-12.433 12.462-24.965 24.824-37.552 37.131-14.996 14.669-32.086 26.645-49.699 37.854-14.808 9.428-29.787 18.607-44.959 27.439-11.805 6.879-24.028 13.041-36.053 19.544-8.449 4.574-16.853 9.229-25.351 13.703-.937.491-2.662.502-3.527-.044-11.006-6.973-21.923-14.089-32.857-21.172-.154-.099-.275-.237-.413-.358h-.011ZM596.795 197.068c1.692-6.063 3.5-12.098 5.021-18.204.633-2.549.915-5.252.892-7.878-.077-10.183.138-20.405-.661-30.539-.782-9.94-2.965-19.721-7.01-28.966-2.755-6.295-4.987-12.86-8.195-18.91-5.742-10.84-12.989-20.61-22.661-28.388-1.339-1.076-2.342-2.576-3.676-3.658-3.759-3.05-7.815-5.759-11.38-9.013-7.865-7.183-17.526-10.813-27.242-14.354-6.618-2.41-13.281-4.755-20.071-6.614-4.546-1.247-9.319-1.876-14.031-2.262-5.924-.485-11.887-.54-17.839-.59-5.357-.044-10.713.182-16.065.287 2.216-.64 4.393-1.529 6.652-1.882 9.005-1.423 17.999-3.061 27.059-3.878 6.426-.579 12.962-.088 19.438.16 4.282.166 8.547.9 12.829 1.115 10.179.507 19.939 3.006 29.738 5.577 9.562 2.504 18.506 6.288 27.087 11.11 10.537 5.919 19.862 13.449 28.161 22.12 5.374 5.61 9.821 12.098 14.836 18.061 9.44 11.237 15.321 24.554 21.923 37.44 3.455 6.742 5.147 14.04 6.613 21.498 2.673 13.587 3.522 27.229 2.899 40.987-.198 4.408-1.251 8.782-1.907 13.107-5.456-.392-10.377-.684-15.282-1.109-9.005-.783-17.955-.419-26.778 1.545-3.522.783-6.911 2.146-10.361 3.243l.011-.005Z"/><path fill="#CE2834" d="M666.03 274.248c.138-.22.276-.441.414-.656 1.548-.182 3.097-.508 4.651-.519 6.768-.044 13.541.033 20.314 0 2.474-.011 4.585.91 5.174 3.244 1.555 6.151 3.329 12.329 2.128 18.816-1.979.811-3.902 2.146-5.936 2.345-7.065.695-13.81-1.296-20.412-3.464-3.539-1.159-5.622-3.967-5.826-7.883-.088-1.44-.182-2.874-.27-4.314-.027-2.356-.049-4.717-.077-7.072a.69.69 0 0 1-.154-.491l-.006-.006Z"/><path fill="#A41E28" d="M699.78 272.582c.716 4.325 1.51 8.639 2.116 12.975.243 1.704.083 3.47.111 5.207a8573.292 8573.292 0 0 0-3.302 4.364c1.202-6.482-.573-12.666-2.127-18.817-.59-2.333-2.7-3.254-5.175-3.243-6.767.038-13.54-.044-20.314 0-1.554.011-3.102.336-4.651.518.088-3.641 2.1-5.102 5.809-4.827 6.172.464 12.361.635 18.545.916.54.022 1.096-.05 1.636-.132 3.075-.491 5.809-.177 7.352 3.039Z"/><path fill="#030303" d="M267.67 287.46c-3.014 1.683-5.803 3.244-8.597 4.799-.242-.281-.485-.562-.722-.844 2.199-3.177 4.266-6.459 6.63-9.51 4.089-5.274 8.316-10.443 12.615-15.545.628-.745 2.16-1.429 2.931-1.159.75.26 1.643 1.92 1.455 2.731-.71 3.133.8 4.303 3.423 5.318 11.689 4.529 23.879 5.919 36.196 5.025 9.468-.689 18.876-2.493 28.25-4.137 3.268-.574 6.365-2.135 9.501-3.233-.116-.629-.105-.926-.22-1.164-1.009-2.019-1.549-4.005.567-5.682 2.061-1.627 3.952-.468 5.495.778 6.855 5.544 13.772 11.05 19.553 18.414-4.1 1.456-7.198-1.136-10.603-1.517-1.356 4.86-2.48 9.659-4.035 14.321-4.248 12.737-10.437 24.366-20.131 33.876-17.327 17.002-40.71 17.382-58.908.85-9.633-8.755-16.23-19.495-20.093-31.918-1.163-3.735-2.177-7.514-3.301-11.408l-.006.005Zm97.601-8.743c-29.054 10.067-57.943 12.836-87.35 1.682.143 1.87.182 3.961.49 6.007.452 2.985 1.968 4.987 4.933 6.333 8.244 3.735 16.963 5.434 25.835 5.666 8.306.215 16.688-.249 24.949-1.219a79.075 79.075 0 0 0 25.681-7.558c1.262-.618 2.91-1.429 3.346-2.549 1.041-2.681 1.46-5.604 2.116-8.362Zm-55.634 52.891c14.78 6.896 33.077-2.372 42.887-19.721-13.078-5.362-34.025 4.705-42.887 19.721ZM286.38 211.311c-.077 12.291-2.617 24.052-7.958 35.123-5.279 10.956-19.641 12.274-27.351 2.786-6.211-7.646-8.752-16.549-9.832-26.087-1.063-9.439-1.388-18.877.017-28.288 1.493-10.001 4.161-19.606 11.86-26.832 6.414-6.018 14.979-5.544 21.019.91 4.502 4.805 7.385 10.597 8.768 16.875 1.84 8.374 2.888 16.919 4.276 25.392-.264.044-.534.083-.799.127v-.006Zm-36.819-25.717c.077 1.897.887 3.845 3.224 4.805 2.133.871 4.326.435 5.39-1.435 2.166-3.795 5.246-6.443 8.74-8.903 2.331-1.639 2.662-4.833 1.356-7.21-1.301-2.372-4.067-3.481-6.856-2.753-5.412 1.418-11.76 9.461-11.854 15.496ZM391.487 209.546c-.21 12.236-2.761 23.892-8.14 34.842-2.678 5.45-7.253 8.87-13.386 9.229-6.415.369-11.265-2.692-15.117-7.85-5.726-7.657-7.815-16.483-8.757-25.673-1.091-10.625-1.29-21.283.926-31.808 1.714-8.148 4.436-15.937 10.603-21.906 6.718-6.504 15.161-6.14 21.598.728 5.241 5.599 7.622 12.616 9.639 19.799.418 1.5.931 3.006 1.08 4.54.589 6.024 1.052 12.059 1.565 18.088l-.011.011Zm-36.88-26.727c-.138 2.521.672 4.59 3.108 5.583 2.067.844 4.326.513 5.412-1.402 2.155-3.8 5.235-6.448 8.724-8.909 2.381-1.682 2.711-4.76 1.394-7.193-1.3-2.4-4.006-3.497-6.828-2.764-5.423 1.413-11.606 9.097-11.81 14.685Z"/><path fill="#A41E28" d="M401.666 271.126c-2.348-.287-4.74-.397-7.038-.899-3.78-.822-7.071-2.67-7.798-6.791-.711-4.01 1.565-7.05 4.525-9.444 5.384-4.358 11.666-6.747 18.417-7.96 5.23-.938 10.471-1.517 15.69.154 3.313 1.059 6.118 2.869 6.878 6.416.865 4.06-1.515 6.962-4.359 9.466-5.792 5.108-18.192 9.361-26.31 9.058h-.005ZM236.395 275.837c-6.916-.48-13.414-1.307-19.085-5.257-3.262-2.273-5.345-5.064-4.745-9.213.513-3.563 3.12-5.621 6.063-6.956 7.654-3.475 15.662-3.53 23.598-1.202 3.268.959 6.492 2.537 9.313 4.457 5.782 3.939 5.153 11.077-.909 14.607-4.524 2.637-9.49 3.161-14.224 3.564h-.011Z"/><path fill="#030303" d="M409.078 137.882c-.909 1.076-1.752 2.94-3.081 3.398-1.344.464-3.179-.413-4.767-.816-.363-.094-.678-.612-.892-1.004-6.487-11.899-17.156-13.195-28.878-11.066-3.979.723-7.76 2.598-11.585 4.071-2.656 1.026-5.086.524-6.288-1.55-1.311-2.278-.688-4.871 1.847-6.388 12.129-7.282 31.005-8.953 43.647-.337 3.929 2.681 7.076 6.058 8.989 10.471.358.822.545 1.721 1.008 3.221ZM284.203 126.971c-.137 4.319-3.835 6.625-6.646 4.694-6.927-4.749-14.296-4.606-21.868-2.615-7.528 1.981-13.954 5.853-18.897 11.999-.507.629-1.091 1.268-1.769 1.688-1.83 1.125-3.731 1.07-5.346-.359-1.587-1.407-2.37-3.42-1.019-5.169 2.314-3.006 4.689-6.123 7.632-8.445 9.242-7.299 19.851-10.846 31.694-10.051 4.812.32 9.408 1.71 13.304 4.644 1.411 1.065 2.298 2.825 2.921 3.619l-.006-.005ZM652.622 362.991c-.27.916-.287 1.545-.601 1.936-2.325 2.924-4.585 5.919-7.159 8.611-.672.706-2.375.425-3.609.602.038-1.186-.347-2.637.198-3.503a80.534 80.534 0 0 1 6.255-8.656c.579-.7 2.116-.987 3.114-.833.716.111 1.273 1.275 1.802 1.854v-.011ZM671.023 373.61c0-1.28-.336-2.686.094-3.795.413-1.076 1.51-2.383 2.508-2.571.744-.143 2.546 1.274 2.59 2.069.198 3.53.005 7.088-.237 10.619-.039.524-1.257 1.478-1.67 1.357-1.014-.303-2.414-.938-2.684-1.765-.612-1.859-.634-3.911-.893-5.886.094-.011.193-.017.287-.028h.005ZM52.31 349.856c-3.461-.882-6.47-1.274-9.16-2.416-5.466-2.311-10.774-5.009-16.125-7.579-2.017-.971-3.141-2.588-2.684-4.882.48-2.389 2.155-3.553 4.53-3.636 6.614-.226 21.02 9.676 23.125 15.888.165.491.137 1.053.314 2.625Z"/><path fill="#CE2834" d="M309.642 331.603c8.862-15.022 29.804-25.084 42.887-19.722-9.809 17.349-28.106 26.623-42.887 19.722Z"/></svg>