<svg width="428" height="115" viewBox="0 0 428 115" fill="none" xmlns="http://www.w3.org/2000/svg">
<path d="M27.0754 99.8734C19.5459 99.8734 13.754 96.1666 10.8001 90.2009C4.71861 87.2471 0.895953 80.9339 0.895953 72.8252V19.5397C0.895953 8.65089 8.25167 1.12141 18.8509 1.12141H42.6556C50.1272 1.12141 55.8611 4.71239 58.5833 10.5622C64.6648 13.3423 68.2558 19.4818 68.2558 27.5325C68.2558 34.7724 65.4757 39.2901 61.0159 42.0123C65.997 46.472 67.5029 51.9743 67.5029 56.55C67.5029 68.4234 60.5526 75.7212 47.9262 75.7791C47.1733 75.7791 46.4783 75.7212 45.7253 75.6632V80.3547C45.7253 91.9385 38.1958 99.8734 27.0754 99.8734ZM4.3711 72.8252C4.3711 82.4977 10.3947 88.8688 19.5459 88.8688C28.6971 88.8688 34.7207 82.4977 34.7207 72.8252V67.9021C31.9406 67.6125 28.4654 67.0333 25.8591 66.3962C24.9903 66.1645 24.3532 65.5853 24.3532 64.6007C24.3532 63.6161 25.1061 62.921 26.0328 62.921C26.4383 62.921 27.1333 63.0948 27.8862 63.2686C30.9559 63.9057 35.6474 64.7745 40.2809 64.7745C51.0539 64.7745 56.4982 59.0405 56.4982 49.0205C56.4982 44.2132 54.4711 39.5217 49.6638 36.51C47.6946 37.3208 43.4665 38.2475 39.4121 38.2475C35.184 38.2475 31.0139 37.4367 28.5233 36.6258C27.8283 36.3941 27.0754 35.8149 27.0754 34.8882C27.0754 33.9036 27.8283 33.2086 28.755 33.2086C29.2184 33.2086 29.9713 33.3823 30.6084 33.614C32.5777 34.2511 36.0528 34.7724 39.4121 34.7724C48.6792 34.7724 57.2512 31.6448 57.2512 20.003C57.2512 10.5043 51.691 4.59656 42.6556 4.59656H18.8509C10.163 4.59656 4.3711 10.5622 4.3711 19.5397V72.8252ZM8.25167 17.8021C8.25167 17.3967 8.36751 16.8175 8.42543 16.47C9.17838 12.6473 11.9006 9.51968 15.897 8.65089C16.4183 8.53505 16.9975 8.41921 17.4029 8.41921C18.5613 8.41921 19.2563 9.23008 19.3142 10.0989C19.3142 11.0256 18.6192 11.7785 17.5766 11.9523C14.1015 12.4735 12.2481 14.4428 11.7847 17.86C11.611 18.9605 10.9739 19.6555 9.93133 19.6555C9.2363 19.6555 8.25167 19.1342 8.25167 17.8021ZM98.1421 99.8734C90.6705 99.8734 84.8207 96.1087 81.9826 90.2588C75.9011 87.305 72.1364 81.0497 72.1364 73.3465V19.2501C72.1364 8.24546 79.608 0.252626 90.6126 0.252626C98.0841 0.252626 103.934 4.01736 106.772 9.80927C112.796 12.7631 116.56 19.0184 116.56 26.7796V80.876C116.56 91.8806 109.263 99.8734 98.1421 99.8734ZM75.6115 73.3465C75.6115 82.4977 81.5772 88.8688 90.6126 88.8688C99.7638 88.8688 105.556 82.4977 105.556 73.3465V19.2501C105.556 10.0989 99.59 3.72777 90.6126 3.72777C81.5772 3.72777 75.6115 10.0989 75.6115 19.2501V73.3465ZM79.6659 16.5858C79.6659 16.2962 79.7238 15.9487 79.7817 15.6012C80.3609 12.5315 83.1989 8.65089 87.427 7.7821C87.6587 7.72418 88.0062 7.72418 88.2379 7.72418C89.3384 7.72418 90.0334 8.47713 90.0913 9.40384C90.0913 10.2726 89.4542 11.0256 88.4117 11.1993C85.5157 11.7206 83.5465 14.2111 83.1989 16.7016C83.0252 17.7442 82.2143 18.3234 81.4034 18.3234C80.5347 18.3234 79.6659 17.6863 79.6659 16.5858ZM161.216 100.163C149.227 100.163 139.554 95.3557 133.646 86.7258C124.785 80.7022 119.514 70.0451 119.514 56.1445C119.514 33.5561 133.299 19.6555 153.686 19.6555C165.734 19.6555 175.406 24.4628 181.314 33.0927C190.118 39.1163 195.388 49.7155 195.388 63.674C195.388 86.2624 181.661 100.163 161.216 100.163ZM122.989 56.1445C122.989 76.8216 135.21 89.1584 153.686 89.1584C172.163 89.1584 184.384 76.8216 184.384 56.1445C184.384 35.4674 172.163 23.1307 153.686 23.1307C135.21 23.1307 122.989 35.4674 122.989 56.1445ZM128.376 45.082L128.55 44.1553C130.693 37.0891 136.253 31.0656 142.74 28.7488C143.029 28.6909 143.377 28.575 143.782 28.575C144.883 28.575 145.462 29.4438 145.462 30.2547C145.462 30.9497 144.941 31.6448 144.072 31.9923C137.817 34.4249 133.82 39.1163 131.793 45.4874C131.503 46.3562 130.982 46.9354 130.113 46.9933C129.245 46.9933 128.318 46.472 128.376 45.082ZM151.949 65.1799V47.1091C151.949 45.9508 152.47 45.1399 153.686 45.1399C154.903 45.1399 155.424 45.9508 155.424 47.1091V65.1799C155.424 66.2804 154.903 67.1491 153.686 67.1491C152.47 67.1491 151.949 66.2804 151.949 65.1799ZM239.928 100.163C227.649 100.163 217.803 95.0082 211.895 86.3783C202.802 80.2968 197.473 69.5238 197.473 56.1445C197.473 34.309 211.432 19.6555 232.398 19.6555C246.299 19.6555 256.377 25.1578 260.547 32.6294C267.034 36.452 270.741 42.3019 270.741 48.615C270.741 55.4495 267.555 60.7201 262.401 63.3265C267.555 66.4541 270.741 71.3193 270.741 78.4434C270.741 90.3747 258.925 100.163 239.928 100.163ZM200.948 56.1445C200.948 76.0687 213.401 89.1584 232.398 89.1584C249.658 89.1584 259.736 80.4126 259.736 71.2035C259.736 62.979 254.292 57.8821 245.951 57.8821C241.897 57.8821 236.279 57.8821 232.862 59.0984V64.6007C232.862 65.7012 232.341 66.5699 231.124 66.5699C229.908 66.5699 229.387 65.7012 229.387 64.6007V47.6883C229.387 46.53 229.908 45.7191 231.124 45.7191C232.341 45.7191 232.862 46.53 232.862 47.6883V53.1327C236.279 54.4069 241.897 54.4069 245.951 54.4069C254.292 54.4069 259.736 49.2521 259.736 41.0856C259.736 31.8185 249.658 23.1307 232.398 23.1307C213.401 23.1307 200.948 36.2204 200.948 56.1445ZM206.451 45.2557C206.451 44.9661 206.509 44.6186 206.624 44.329C208.767 37.3208 214.328 31.4131 220.757 29.0384C221.104 28.9226 221.452 28.8646 221.799 28.8646C222.9 28.8646 223.479 29.7334 223.479 30.4864C223.537 31.2972 222.9 31.9923 222.031 32.2819C215.892 34.7724 211.895 39.348 209.81 45.6612C209.52 46.53 208.941 47.1671 208.072 47.1671C207.262 47.1671 206.393 46.6458 206.451 45.2557ZM298.542 99.8734C291.939 99.8734 286.437 96.1087 283.715 90.3168C277.749 87.6525 273.695 81.2235 273.695 73.2886V19.2501C273.695 8.24546 281.166 0.252626 292.171 0.252626C299.237 0.252626 304.855 3.55401 307.867 8.82465C310.705 11.8364 312.327 16.0645 312.327 20.9876V26.1424L313.659 24.8103C317.192 21.5089 320.551 19.9451 324.895 19.9451C331.672 19.9451 337.29 24.1732 339.722 29.5018C345.456 32.1081 349.279 38.0159 349.279 44.0394C349.279 50.0051 347.599 54.349 337.985 64.369L343.371 70.3926C347.136 74.5628 349.047 79.8913 349.047 83.5982C349.047 92.5177 342.039 99.8734 331.614 99.8734C324.663 99.8734 319.972 94.5449 316.323 89.7955C312.211 95.9349 307.172 99.8734 298.542 99.8734ZM277.17 73.2886C277.17 82.4398 283.136 88.8688 291.013 88.8688C298.832 88.8688 303.002 85.162 306.882 78.9067L305.55 77.1112C304.044 75.142 301.38 73.3465 298.716 72.4777C297.847 72.1302 297.036 71.7247 297.036 70.6822C297.036 69.6397 297.905 69.0025 298.832 69.0025C299.237 69.0025 299.99 69.1184 300.801 69.4659C303.06 70.3347 306.361 72.246 308.388 75.084L312.5 80.818C316.265 86.0308 319.451 88.8688 324.084 88.8688C332.54 88.8688 338.043 83.0769 338.043 76.0687C338.043 73.1148 336.537 68.5971 333.351 65.122L325.185 56.0866C323.158 53.7698 318.93 51.6268 316.613 50.816C315.628 50.5264 315.049 50.0051 315.049 49.0784C315.049 48.0938 315.86 47.3408 316.902 47.3408C317.366 47.3408 317.945 47.5725 318.582 47.8621C320.03 48.4413 323.968 49.7155 328.254 54.1753C337 45.082 338.274 41.5489 338.274 36.51C338.274 29.9651 332.483 23.4202 324.895 23.4202C321.188 23.4202 318.466 24.8103 315.165 28.1696L309.025 34.4249C306.767 36.6837 304.102 38.7109 301.206 40.5064C300.685 40.8539 300.28 41.0856 299.7 41.0856C298.774 41.0856 298.021 40.2747 298.021 39.4059C298.021 38.7109 298.31 38.2475 298.89 37.9C302.249 35.757 305.261 33.4402 307.114 31.5289V19.2501C307.114 10.0989 301.148 3.72777 292.171 3.72777C283.136 3.72777 277.17 10.0989 277.17 19.2501V73.2886ZM281.224 16.5858C281.224 16.2962 281.282 15.9487 281.34 15.6012C281.919 12.5315 284.757 8.65089 288.985 7.7821C289.217 7.72418 289.565 7.72418 289.796 7.72418C290.897 7.72418 291.592 8.47713 291.592 9.40384C291.65 10.2726 291.013 11.0256 289.97 11.1993C287.074 11.7206 285.105 14.2111 284.757 16.7016C284.584 17.7442 283.773 18.3234 282.962 18.3234C282.093 18.3234 281.224 17.6863 281.224 16.5858ZM382.235 114.064C372.099 114.064 363.875 109.372 360.284 102.596C354.086 99.2363 350.148 93.3865 350.148 86.6099C350.148 79.6017 353.623 73.8098 359.878 71.0876L353.102 49.5997C351.885 45.777 351.19 41.2014 351.19 38.4213C351.19 26.3741 357.735 19.9451 368.856 19.9451C376.211 19.9451 381.019 22.5515 384.088 27.2429C385.305 28.0538 386.231 29.328 386.811 30.9497C389.475 23.7678 394.051 19.9451 402.449 19.9451C410.152 19.9451 415.654 23.1886 418.145 29.328C424.168 31.7606 427.644 37.4946 427.644 46.0666C427.644 50.4684 427.064 55.9708 425.906 60.4305L419.709 84.5828C415.307 101.901 404.071 114.064 382.235 114.064ZM353.623 86.6099C353.623 95.7612 362.485 103.059 374.706 103.059C394.63 103.059 404.708 92.286 408.82 76.1845L415.017 52.0323C416.06 47.8621 416.639 42.7652 416.639 38.5371C416.639 28.4013 411.658 23.4202 402.449 23.4202C393.587 23.4202 390.112 28.2855 388.201 39.0584L390.923 52.3798C391.792 56.4341 392.603 59.3301 393.298 61.0676C393.529 61.6468 393.935 62.3998 393.935 63.0369C393.935 64.0215 393.24 64.7165 392.255 64.7165C391.502 64.7165 390.981 64.3111 390.517 63.3844C389.649 61.7047 388.548 57.94 387.853 54.6386L384.204 37.1471C382.293 28.0538 378.123 23.4202 368.856 23.4202C359.589 23.4202 354.666 28.4013 354.666 38.4213C354.666 40.9118 355.303 45.0241 356.403 48.5571L363.18 69.9872C364.686 69.5238 366.249 69.2921 368.45 69.2921C374.995 69.2921 378.992 72.8831 381.25 75.8949C381.772 76.5899 382.003 77.1691 382.003 77.7483C382.003 78.6171 381.25 79.3121 380.324 79.3121C379.687 79.3121 379.165 78.8488 378.76 78.3275C376.096 74.8524 373.258 72.7673 368.392 72.7673C358.952 72.7673 353.623 78.675 353.623 86.6099ZM358.604 35.6991C358.836 30.7181 362.311 27.4167 366.886 27.2429C368.219 27.2429 369.029 27.9959 369.029 28.9805C369.029 29.8493 368.45 30.6601 367.176 30.7181C364.164 30.8918 362.311 32.8031 362.079 36.0466C362.021 37.1471 361.21 37.7842 360.457 37.7842C359.415 37.7842 358.604 36.9154 358.604 35.6991Z" fill="#CE2834"/>
</svg>
