<svg width="727" height="742" viewBox="0 0 727 742" fill="none" xmlns="http://www.w3.org/2000/svg">
<path d="M534.151 491.938C514.361 506.148 492.13 511.896 467.401 508.934C442.222 505.922 424.085 491.8 408.191 473.104C402.597 476.15 396.899 479.084 391.371 482.306C382.565 487.431 373.929 492.859 365.094 497.934C361.011 500.278 356.431 501.167 351.818 499.655C349.691 498.954 348.699 499.655 347.531 501.227C337.815 514.312 330.182 528.445 325.432 544.095C323.326 551.029 321.034 557.903 318.868 564.815C318.008 567.562 318.306 569.857 320.268 572.395C324.395 577.746 326.253 584.095 326.644 590.869C327.421 604.357 324.125 617.111 319.744 629.666C312.282 651.064 305.09 672.567 295.181 693.017C294.911 693.574 294.763 694.192 294.647 694.517C301.277 694.517 307.862 694.517 314.443 694.517C324.925 694.528 335.407 694.782 345.63 697.358C348.776 698.153 351.951 699.427 354.673 701.17C359.087 703.989 359.898 709.163 356.431 713.086C354.183 715.629 351.256 717.797 348.247 719.407C339.049 724.35 328.992 726.998 318.923 729.48C283.548 738.202 247.687 742.996 211.21 741.826C202.646 741.55 194.081 740.05 185.605 738.604C182.569 738.086 179.521 736.453 176.942 734.66C172.715 731.72 172.153 726.739 175.592 722.894C177.625 720.621 180.227 718.701 182.894 717.184C190.946 712.589 199.851 710.311 209.556 707.955C208.234 707.288 207.435 706.869 206.63 706.477C177.036 691.974 149.216 674.818 125.778 651.329C119.638 645.173 114.083 638.388 108.638 631.586C100.62 621.568 99.3355 610.226 103.551 598.3C107.018 588.492 111.438 579.086 117.869 570.833C128.125 557.671 141.137 548.508 157.141 543.345C182.15 535.269 204.707 539.93 225.456 555.426C226.255 556.022 227.059 556.607 228.051 557.329C229.021 555.542 229.931 553.887 230.818 552.221C233.353 547.46 237.277 544.344 242.198 542.286C242.992 541.955 243.863 540.967 244.05 540.14C246.624 528.732 250.123 517.628 255.094 507.042C262.953 490.305 271.335 473.866 283.933 459.782C283.167 459.142 282.578 458.602 281.938 458.127C262.352 443.509 242.788 428.863 224.932 412.093C224.298 411.497 222.75 411.282 221.901 411.613C206.564 417.521 190.637 420.224 174.275 420.384C162.806 420.5 151.321 420.72 140.001 418.172C131.443 416.247 123.325 413.213 115.488 409.296C114.447 408.777 112.92 408.662 111.785 408.971C99.6441 412.28 88.2583 410.813 78.7573 402.362C73.6155 397.789 69.7027 391.831 65.1836 386.546C64.5994 385.862 63.6736 384.996 62.9241 385.007C53.3624 385.189 44.903 381.747 36.9891 376.904C20.5772 366.858 8.43642 353.056 1.82317 334.83C-1.19688 326.505 -0.77804 318.385 5.46046 311.302C5.96747 310.729 6.13281 309.675 6.11076 308.853C5.76908 296.016 10.2992 285.899 22.0542 279.682C22.71 279.335 23.4099 278.446 23.4871 277.74C25.5868 258.03 42.897 243.544 62.5163 245.624C75.098 246.959 85.9878 252.216 94.2378 262.052C96.828 265.141 98.6852 268.848 101.209 272.776C111.41 272.616 121.159 275.87 129.073 284.366C128.616 283.13 128.274 281.833 127.684 280.664C111.989 249.607 103.127 216.53 99.4127 182.091C97.324 162.745 97.5279 143.277 102.097 124.213C107.464 101.822 117.665 81.4935 131.503 63.2948C149.128 40.1203 171.514 22.4622 198.799 11.9755C215.299 5.63159 232.719 3.62913 250.525 4.71035C273.093 6.07842 295.011 10.3316 315.953 18.7717C335.643 26.7099 353.24 38.0902 368.126 53.4204C368.241 53.5417 368.44 53.5859 368.528 53.6245C372.551 50.1105 376.541 46.6297 380.531 43.1433C393.449 31.8291 408.235 23.6151 424.112 17.3595C437.846 11.9479 451.822 7.17619 466.321 4.23042C484.844 0.46822 503.482 -1.58941 522.358 1.50531C530.31 2.80718 538.406 3.48571 546.226 5.33371C579.909 13.2718 607.988 30.3562 630.319 57.0447C642.669 71.8011 652.958 87.7381 661.666 104.861C669.839 120.925 672.555 138.103 673.421 155.756C674.121 170.021 673.085 184.182 670.296 197.879C674.903 199.716 679.648 201.2 684.024 203.418C697.416 210.197 706.751 221.12 714.351 233.796C722.166 246.826 725.836 261.048 725.836 276.058C725.836 283.428 724.128 290.798 723.185 298.162C723.092 298.89 723.015 299.624 722.855 300.336C722.094 303.734 722.541 306.591 724.475 309.846C728.211 316.146 727.17 323.179 725.379 329.948C723.792 335.95 721.146 341.505 717.233 346.37C715.365 348.693 713.221 350.8 711.425 353.172C710.874 353.895 710.879 355.185 710.934 356.2C711.403 365.187 712.373 374.167 712.345 383.143C712.307 395.058 709.314 406.4 703.726 416.991C699.317 425.343 692.522 430.998 683.798 434.269C677.692 436.558 671.883 435.615 666.719 431.351C665.248 432.404 663.848 433.408 662.635 434.28C666.807 441.848 671.497 449.047 674.92 456.814C683.01 475.195 688.372 494.392 688.041 514.66C687.815 528.385 684.013 541.293 676.27 552.833C672.341 558.692 666.78 561.913 660.045 563.85C636.298 570.657 616.817 562.895 599.655 546.71C586.445 534.254 577.413 519.018 570.342 502.49C568.722 498.706 567.366 494.812 565.729 490.553C555.6 498.348 545.256 501.211 534.151 491.91V491.938ZM702.006 290.759C707.231 289.567 712.505 288.569 717.658 287.124C722.023 285.899 722.177 285.331 722.309 280.67C722.353 279.02 722.667 277.376 722.612 275.738C722.502 272.665 722.215 269.593 721.989 266.332C720.76 266.796 720.017 267.149 719.228 267.358C712.747 269.113 706.267 270.839 699.78 272.577C698.237 269.361 695.503 269.046 692.428 269.537C691.888 269.626 691.337 269.697 690.792 269.67C684.608 269.394 678.414 269.217 672.247 268.754C668.538 268.478 666.526 269.94 666.438 273.581C666.3 273.802 666.163 274.022 666.025 274.243H650.666C651.669 276.692 652.842 279.638 654.099 282.545C654.325 283.069 654.843 283.726 655.333 283.836C659.048 284.663 662.79 285.369 666.521 286.114C666.725 290.031 668.808 292.839 672.346 293.997C678.948 296.165 685.694 298.151 692.759 297.462C694.793 297.263 696.721 295.928 698.694 295.117C699.797 293.661 700.899 292.204 702.001 290.754L702.006 290.759ZM69.5318 326.279C69.2728 326.252 69.0083 326.224 68.7493 326.202C68.8925 326.357 69.0358 326.517 69.1791 326.671C71.2402 330.698 73.3014 334.73 75.4562 338.939C77.3354 338.796 79.8595 338.609 82.2017 338.432C83.1331 335.955 84.0314 333.55 84.9352 331.145C85.2824 331.161 85.6296 331.178 85.9823 331.189C86.9798 334.388 88.1867 337.538 88.9141 340.793C89.5865 343.81 87.9001 345.118 84.7588 344.688C81.4302 344.23 78.0739 343.987 74.7783 343.656C71.3505 358.705 54.8945 368.232 39.91 362.566C36.5868 361.309 33.418 359.632 30.1775 358.142C29.1469 357.668 28.1274 357.188 27.1023 356.708C33.2526 364.122 40.8303 369.307 49.4386 373.009C59.2482 377.224 68.7768 376.81 77.7653 370.88C82.1246 368.006 86.2137 364.723 90.3856 361.573C93.0199 359.582 95.5164 359.472 97.2799 361.413C99.1206 363.438 98.7899 366.174 96.3981 368.485C95.9352 368.932 95.4227 369.324 94.9267 369.727C88.589 374.912 82.0694 379.811 73.5439 383.247C77.2418 387.39 80.3335 391.511 84.103 394.86C86.7483 397.21 90.1431 399.035 93.5159 400.188C104.003 403.785 112.827 399.819 120.514 392.929C128.638 385.653 134.347 376.479 138.811 366.654C140.817 362.23 141.969 357.271 142.658 352.433C143.606 345.78 139.544 338.829 133.835 335.85C126.836 348.715 115.119 355.974 109.751 352.94C111.802 347.7 115.213 343.562 119.357 339.761C125.833 333.826 129.123 326.147 129.905 317.381C130.638 309.184 128.032 301.737 124.405 294.676C121.595 289.203 117.059 285.524 111.058 283.439C104.582 281.188 98.4152 281.966 92.2098 284.068C82.5379 287.35 74.2548 292.469 69.4492 301.941C67.3274 306.122 66.7818 310.414 69.857 314.408C73.1305 318.661 77.4787 320.625 82.8851 319.869C87.4923 319.224 91.9287 317.933 95.4943 314.844C99.4898 311.385 103.199 307.595 107.117 304.043C107.911 303.325 109.415 302.388 110.01 302.691C110.887 303.138 111.807 304.677 111.697 305.631C111.427 307.948 111.041 310.475 109.873 312.422C102.124 325.342 83.5905 334.008 69.5153 326.279H69.5318ZM121.732 584.332C126.847 583.361 131.944 581.64 137.075 581.541C165.953 580.967 190.648 591.708 211.81 610.822C224.827 622.578 235.254 636.644 245.086 651.097C255.315 666.124 267.097 679.794 280.131 692.427C281.216 693.48 282.357 694.473 283.674 695.67C284.462 694.142 285.113 692.945 285.708 691.72C295.997 670.543 303.608 648.323 311.329 626.141C311.924 624.426 311.202 623.582 310.254 622.561C298.488 609.901 284.573 600.098 269.329 592.177C264.32 589.573 258.775 588.343 253.044 587.94C254.036 592.149 255.171 596.038 255.838 600.004C256.692 605.129 258.125 610.298 256.053 615.494C255.16 617.729 253.86 619.367 251.165 619.025C249.048 618.755 247.842 616.796 247.759 614.071C247.654 610.596 247.638 607.087 247.142 603.662C246.122 596.645 244.722 589.661 240.517 583.725C232.201 571.997 221.752 562.614 208.989 555.934C199.592 551.013 189.717 547.659 178.926 548.564C164.581 549.766 151.294 553.826 139.798 563.039C132.391 568.974 126.125 575.782 121.314 583.946C121.275 584.145 121.236 584.343 121.198 584.542C121.38 584.476 121.562 584.409 121.743 584.343L121.732 584.332ZM596.795 197.074C600.245 195.976 603.634 194.613 607.156 193.83C615.979 191.872 624.924 191.502 633.934 192.285C638.839 192.716 643.76 193.002 649.216 193.394C649.872 189.069 650.925 184.695 651.123 180.287C651.746 166.529 650.897 152.887 648.224 139.3C646.758 131.842 645.066 124.544 641.611 117.803C635.009 104.922 629.128 91.6051 619.688 80.3626C614.673 74.3938 610.22 67.912 604.852 62.3018C596.553 53.63 587.228 46.1001 576.691 40.181C568.11 35.3651 559.166 31.5809 549.604 29.0709C539.806 26.5002 530.045 24.0013 519.867 23.4938C515.579 23.2786 511.319 22.5394 507.037 22.3795C500.561 22.1312 494.02 21.6403 487.599 22.2195C478.534 23.0359 469.54 24.6743 460.54 26.0975C458.281 26.4561 456.104 27.3387 453.888 27.9786C446.112 30.0638 438.165 31.6526 430.599 34.3336C416.127 39.4583 402.812 46.8889 390.126 55.6049C379.346 63.0079 369.817 71.8011 360.471 80.7929C354.96 86.0942 350.242 92.2284 345.244 98.0483C343.976 99.5211 342.378 100.658 340.774 99.6701C339.534 98.9088 338.311 97.0167 338.3 95.6155C338.283 93.442 338.796 90.921 339.975 89.1392C344.257 82.6795 348.793 76.3687 353.499 70.2069C354.91 68.3589 355.23 67.2225 353.428 65.6724C349.763 62.528 346.368 59.0196 342.477 56.2007C333.957 50.0333 325.228 44.1362 315.341 40.2692C300.748 34.5652 285.57 31.1009 270.123 28.8888C250.922 26.1417 231.694 24.9391 212.67 30.2404C208.619 31.3712 204.47 32.4193 200.706 34.2232C182.982 42.724 166.758 53.6355 154.104 68.7174C137.814 88.1352 127.1 110.604 121.986 135.56C119.126 149.517 118.927 163.65 119.627 177.821C120.228 189.979 122.719 201.823 125.436 213.639C129.404 230.906 134.215 247.93 141.715 263.999C147.629 276.665 153.906 289.209 160.85 301.328C172.18 321.11 184.707 340.142 199.284 357.745C217.713 379.998 237.966 400.415 260.892 418.029C275.601 429.332 290.558 440.315 305.559 451.232C310.309 454.691 315.556 457.471 320.576 460.56C320.714 460.681 320.841 460.819 320.99 460.919C331.929 468.002 342.841 475.118 353.846 482.091C354.712 482.637 356.437 482.631 357.374 482.135C365.872 477.661 374.276 473 382.724 468.432C394.749 461.928 406.967 455.761 418.778 448.887C433.944 440.056 448.923 430.871 463.737 421.449C481.35 410.239 498.44 398.263 513.435 383.595C526.022 371.288 538.555 358.926 550.987 346.464C558.747 338.686 566.479 330.852 573.853 322.71C581.216 314.579 588.292 306.166 595.175 297.627C602.968 287.962 610.413 278.011 617.974 268.164C618.183 267.893 618.051 267.353 618.09 266.779C617.153 266.873 616.437 266.956 615.72 267.011C608.324 267.574 600.928 268.572 593.533 268.583C582.985 268.605 574.117 264.495 567.647 255.857C567.223 253.981 566.749 252.117 566.38 250.235C565.239 244.41 566.551 238.695 567.587 233.057C569.554 222.383 574.382 213.077 582.874 206.17C587.156 202.689 592.133 200.069 596.795 197.057V197.074ZM701.665 357.546C690.317 361.027 679.472 359.279 668.924 355.147C666.433 354.17 664.024 352.234 662.349 350.127C660.558 347.876 661.958 345.416 664.873 345.405C667.199 345.399 669.541 346.111 671.844 346.646C676.479 347.722 681.037 349.503 685.721 349.906C694.991 350.701 703.814 349.619 709.909 341.041C714.28 334.896 717.184 328.293 717.625 320.741C717.74 318.755 717.283 316.736 717.052 314.391C708.256 318.915 699.593 320.421 690.521 319.152C675.587 317.072 663.87 309.322 654.165 298.134C651.696 295.288 649.982 294.852 647.028 297.075C637.235 304.451 632.782 318.893 645.204 328.331C646.494 329.313 647.938 330.488 648.522 331.906C649.067 333.219 649.117 335.403 648.351 336.407C647.585 337.417 645.474 337.93 644.058 337.764C642.537 337.588 640.905 336.623 639.737 335.547C636.789 332.838 634.077 329.882 631.063 326.814C615.985 334.89 607.117 347.97 603.502 364.911C604.99 364.05 606.225 362.958 607.536 361.971C609.928 360.167 612.656 360.194 614.271 361.96C616.007 363.863 615.737 366.571 613.45 368.827C612.143 370.113 610.694 371.26 609.272 372.419C600.361 379.706 597.44 389.553 597.324 400.558C597.308 401.904 597.671 403.3 598.096 404.596C600.311 411.398 607.801 413.946 612.92 409.053C616.762 405.385 619.517 400.569 622.68 396.211C624.571 393.613 626.836 392.631 628.947 393.729C631.068 394.832 631.895 397.38 630.627 400.244C629.481 402.831 628.225 405.506 626.4 407.619C624.312 410.041 623.827 412.854 623.342 415.673C622.466 420.781 628.021 425.614 632.837 423.992C636.568 422.734 639.792 420.671 641.727 417.03C643.231 414.195 644.686 411.326 646.29 408.54C647.916 405.721 650.269 404.646 652.363 405.567C654.369 406.449 655.201 409.086 654.369 412.093C654.149 412.887 653.862 413.682 653.465 414.399C651.602 417.769 649.773 421.162 647.761 424.444C646.361 426.722 646.764 428.256 649.437 428.752C650.71 428.99 652.198 428.813 653.438 428.377C660.349 425.972 665.077 421.189 667.777 414.454C668.902 411.651 669.453 408.612 670.638 405.843C671.475 403.884 672.627 401.849 674.181 400.459C676.474 398.407 678.524 399.085 679.351 402.036C679.819 403.719 679.918 405.754 679.428 407.404C677.686 413.246 675.625 418.988 673.47 425.398C675.091 425.608 677.333 426.584 679.009 425.978C682.475 424.72 685.898 422.988 688.868 420.803C695.779 415.723 698.358 407.895 700.634 400.122C704.734 386.133 703.638 371.939 701.643 357.557L701.665 357.546ZM608.401 504.515C607.635 507.681 605.706 510.081 603.37 512.133C600.339 514.798 597.131 517.269 594.056 519.889C591.053 522.454 591.13 522.46 593.345 525.593C598.256 532.538 604.092 538.59 610.512 544.151C617.919 550.566 626.4 554.737 635.957 556.507C644.256 558.041 643.667 558.515 645.612 550.246C648.395 538.43 648.555 526.404 646.808 514.362C644.741 500.129 641.661 486.206 635.213 473.204C629.911 462.518 624.89 451.69 619.396 441.109C616.189 434.936 612.27 429.133 608.743 423.12C607.768 421.46 606.434 420.82 604.588 420.478C596.15 418.917 590.783 413.88 588.898 405.512C586.969 396.939 588.617 388.631 592.1 380.793C593.67 377.257 594.133 373.963 593.235 370.339C588.275 369.831 583.74 370.78 578.625 373.174C569.747 377.334 561.861 383.005 554.233 389.073C551.82 390.992 549.472 392.984 547.025 395.003C555.694 401.507 563.238 408.673 568.617 417.88C571.119 422.16 573.869 426.314 576.068 430.744C584.643 448.054 585.972 465.139 573.869 481.605C573.478 482.135 573.048 482.968 573.191 483.508C573.742 485.5 574.531 487.425 575.33 489.659C580.02 484.021 584.296 478.251 592.761 478.632C591.383 482.036 589.879 485.329 587.928 488.33C585.779 491.634 583.166 494.63 580.874 497.84C579.683 499.506 578.917 501.349 580.604 502.959C584.241 499.694 587.592 496.251 591.4 493.432C593.494 491.882 596.283 490.934 598.889 490.509C601.97 490.012 602.692 491.204 601.193 493.929C600.019 496.064 598.415 498 596.806 499.854C593.433 503.721 589.89 507.439 586.523 511.311C585.983 511.935 586.005 513.043 585.768 513.932C600.796 504.245 603.337 503.114 608.423 504.504L608.401 504.515ZM256.02 712.6C256.086 712.346 256.158 712.093 256.224 711.833C246.497 705.109 238.396 696.685 230.912 687.633C222.425 677.378 214.081 667.001 205.528 656.801C193.977 643.027 180.789 631.227 164.504 623.195C151.679 616.874 138.216 613.575 123.882 614.082C119.462 614.237 115.235 615.059 111.14 617.365C112.027 619.157 112.76 620.829 113.653 622.407C118.128 630.328 124.273 636.926 130.627 643.297C148.185 660.906 168.168 675.221 189.86 687.34C207.22 697.038 225.015 705.578 244.298 710.664C248.112 711.668 252.107 711.971 256.02 712.6ZM278.362 703.2C261.829 688.251 247.869 671.293 235.21 653.128C228.663 643.728 221.438 634.741 213.916 626.097C200.673 610.883 184.443 599.944 164.895 594.394C149.596 590.047 134.176 587.89 118.547 592.839C117.803 593.076 116.668 593.291 116.453 593.82C114.552 598.52 112.816 603.292 111.035 608.042C119.335 605.686 127.111 604.864 135.047 605.339C147.171 606.056 158.386 609.978 169.155 615.301C186.691 623.968 200.816 636.815 213.216 651.715C221.675 661.882 229.936 672.22 238.44 682.348C245.599 690.876 253.099 699.085 262.749 704.949C272.311 710.758 268.712 710.984 277.871 703.923C278.004 703.818 278.075 703.636 278.362 703.2ZM639.329 269.179C636.634 273.173 634.469 277.045 631.686 280.41C617.577 297.462 603.386 314.441 589.063 331.305C584.732 336.402 580.097 341.284 575.219 345.863C563.178 357.177 550.806 368.138 538.764 379.458C518.654 398.362 497.404 415.827 474.698 431.516C474.064 431.957 473.447 432.432 472.857 432.868C476.61 436.707 480.193 440.37 483.78 444.033C484.976 445.258 486.095 445.329 487.599 444.265C496.665 437.86 505.808 431.56 514.907 425.205C515.91 424.505 516.797 423.628 518.004 422.613C516.439 421.664 515.21 420.903 513.959 420.169C512.443 419.281 511.44 419.308 511.154 421.449C511.049 422.227 510.36 423.07 509.704 423.595C507.56 425.316 505.334 426.938 503.091 428.537C501.586 429.607 500.016 430.578 498.329 431.687C496.197 422.017 501.427 415.739 508.051 410.675C512.333 407.404 517.249 404.982 521.757 401.998C526.722 398.704 531.66 395.345 536.411 391.754C544.534 385.614 552.277 378.934 560.604 373.097C570.739 365.998 581.447 359.913 594.662 361.066C599.721 341.549 610.683 326.847 628.522 317.718C628.522 317.067 628.544 316.609 628.522 316.157C627.767 303.353 636.105 290.958 648.158 286.787C650.037 286.136 651.674 284.851 650.633 282.451C649.475 279.781 648.208 277.156 646.819 274.601C645.144 271.529 642.504 269.697 639.324 269.184L639.329 269.179ZM653.851 555.536C660.652 554.952 665.882 552.387 669.436 546.677C674.947 537.834 677.885 528.125 678.706 517.87C679.786 504.41 676.81 491.43 673.195 478.555C669.26 464.532 662.817 451.756 654.65 439.796C654.099 438.985 652.848 438.147 651.95 438.169C646.372 438.318 641.892 436.492 638.955 431.709C636.739 432.31 634.667 433.11 632.529 433.392C630.368 433.679 628.142 433.452 625.91 433.452C628.875 439.427 631.906 445.489 634.898 451.568C641.209 464.4 647.998 477.032 651.558 491.022C656.965 512.255 659.412 533.609 653.856 555.531L653.851 555.536ZM315.501 614.055C316.25 607.573 317.209 601.593 317.578 595.58C318.273 584.145 313.572 575.495 303.437 569.929C288.089 561.494 271.853 555.31 254.951 550.858C250.277 549.628 245.345 549.468 241.774 553.231C239.393 555.735 237.911 559.144 236.296 562.283C235.932 562.995 236.39 564.528 236.99 565.262C240.121 569.101 243.345 572.864 246.695 576.51C247.5 577.381 248.861 578.115 250.029 578.214C260.109 579.103 269.847 581.199 278.505 586.671C285.945 591.371 293.319 596.209 300.433 601.389C305.448 605.041 309.979 609.366 315.506 614.055H315.501ZM521.839 412.926C529.555 415.811 534.752 421.305 538.874 427.633C542.352 432.967 545.52 438.693 547.692 444.662C551.742 455.805 553.159 467.307 548.987 478.886C547.758 482.295 546.534 485.687 542.021 486.052C544.225 488.451 549.307 489.273 552.707 487.778C561.662 483.828 567.862 476.834 571.224 468.013C574.442 459.562 574.409 450.471 570.998 441.859C567.195 432.266 561.927 423.413 555.551 415.325C551.114 409.699 545.73 404.949 539.293 401.121C533.595 404.977 527.852 408.866 521.839 412.937V412.926ZM24.5176 354.998C24.5948 354.264 24.7105 353.966 24.6389 353.729C24.0547 351.771 23.4705 349.697 25.3443 348.202C27.3117 346.635 29.5162 347.253 31.5773 348.257C32.4811 348.698 33.2747 349.371 34.1895 349.785C37.678 351.368 41.0783 353.255 44.7156 354.363C51.9571 356.57 60.0363 353.089 63.9602 346.574C65.9276 343.308 66.2913 339.817 64.3514 336.634C62.4171 333.456 60.1741 330.279 57.4296 327.824C47.6199 319.042 35.7987 314.778 22.7982 314.088C12.3382 313.536 7.06968 320.752 10.1283 330.886C12.1454 337.555 15.5181 343.54 19.7671 349.035C21.2551 350.954 22.7927 352.835 24.5176 355.003V354.998ZM69.6255 286.826C75.12 281.221 81.9537 277.955 89.1621 275.374C90.821 274.778 91.0139 273.68 90.4738 272.367C90.066 271.369 89.3661 270.464 88.6937 269.609C81.1987 260.077 71.1741 255.333 59.2813 254.566C47.5869 253.816 34.5863 264.567 33.2196 275.903C46.8814 274.199 58.5704 279.158 69.631 286.826H69.6255ZM629.674 209.888C624.29 210.319 618.889 210.616 613.521 211.229C609.443 211.698 607.608 213.38 607.762 215.852C607.922 218.483 610.022 219.619 614.315 219.68C622.201 219.785 630.148 219.437 637.963 220.276C663.622 223.017 684.162 233.912 695.939 258.151C696.424 259.15 697.956 260.082 699.113 260.237C703.009 260.755 706.074 256.298 703.963 252.718C700.585 246.975 697.256 240.984 692.776 236.152C675.835 217.871 654.094 210.694 629.674 209.894V209.888ZM63.5083 293.815C58.5428 290.274 53.3845 287.526 47.6695 285.987C37.2592 283.185 27.8298 284.796 20.0206 292.706C16.5487 296.226 15.6394 300.716 15.4685 305.372C32.6134 303.612 47.3774 308.974 61.5463 318.987C56.7352 309.879 58.405 301.698 63.5027 293.81L63.5083 293.815ZM269.583 545.508C273.815 517.898 285.482 493.626 301.563 471.124C299.216 469.596 297.248 468.316 295.319 467.059C280.792 481.82 263.532 521.086 261.751 543.367C264.083 544.007 266.447 544.653 269.583 545.508ZM166.333 343.546C155.995 327.361 145.816 311.429 135.312 294.985C136.717 300.981 138.596 306.211 139.01 311.556C139.428 316.934 138.392 322.429 138.001 327.736C139.379 328.618 141.401 329.374 142.641 330.814C145.121 333.699 147.177 336.954 149.387 340.07C149.855 340.732 150.054 341.88 150.649 342.117C155.675 344.103 160.74 346.21 166.333 343.54V343.546ZM180.849 363.008C180.056 361.943 179.455 361.253 178.981 360.481C176.848 357.011 174.385 354.275 169.684 355.047C168.411 355.257 166.989 354.656 165.65 354.374C162.79 353.779 159.962 352.99 157.08 352.587C155.201 352.322 153.63 353.288 153.074 355.218C152.528 357.127 153.234 358.793 155.019 359.599C163.12 363.239 171.525 364.839 180.844 363.008H180.849Z" fill="#030303"/>
<path d="M320.571 460.577C315.55 457.487 310.304 454.707 305.553 451.248C290.552 440.331 275.595 429.348 260.886 418.045C237.96 400.425 217.707 380.009 199.278 357.761C184.702 340.164 172.175 321.127 160.844 301.345C153.9 289.22 147.623 276.681 141.71 264.015C134.209 247.946 129.398 230.922 125.43 213.656C122.713 201.84 120.222 190.001 119.622 177.838C118.922 163.666 119.12 149.533 121.98 135.576C127.095 110.62 137.808 88.1517 154.099 68.7338C166.752 53.6464 182.982 42.7405 200.7 34.2396C204.464 32.4358 208.614 31.3821 212.665 30.2568C231.689 24.9555 250.917 26.1581 270.117 28.9053C285.565 31.1118 300.742 34.5817 315.335 40.2856C325.228 44.1527 333.952 50.0497 342.472 56.2171C346.368 59.036 349.763 62.5444 353.422 65.6888C355.224 67.2334 354.905 68.3753 353.494 70.2233C348.787 76.3851 344.252 82.6904 339.97 89.1556C338.79 90.9375 338.278 93.4585 338.294 95.6319C338.305 97.0331 339.529 98.9252 340.769 99.6865C342.372 100.668 343.976 99.5376 345.238 98.0647C350.237 92.2449 354.954 86.1106 360.465 80.8093C369.812 71.8175 379.34 63.0299 390.12 55.6213C402.807 46.9053 416.121 39.4747 430.593 34.35C438.16 31.6745 446.107 30.0803 453.883 27.9951C459.24 27.8902 464.596 27.6696 469.948 27.7082C475.894 27.7523 481.862 27.813 487.787 28.2985C492.499 28.6846 497.271 29.3135 501.818 30.5602C508.602 32.4192 515.27 34.7637 521.889 37.1744C531.6 40.7104 541.266 44.3457 549.13 51.5281C552.696 54.7828 556.752 57.4914 560.51 60.542C561.844 61.6232 562.847 63.1236 564.186 64.1993C573.858 71.972 581.105 81.7471 586.848 92.5869C590.055 98.6384 592.287 105.203 595.043 111.497C599.088 120.743 601.27 130.518 602.053 140.464C602.852 150.598 602.642 160.82 602.714 171.003C602.736 173.629 602.455 176.332 601.821 178.88C600.306 184.987 598.493 191.022 596.801 197.085C592.138 200.096 587.162 202.722 582.88 206.198C574.382 213.099 569.554 222.41 567.592 233.085C566.551 238.728 565.244 244.437 566.385 250.263C566.754 252.149 567.228 254.014 567.653 255.884C565.448 258.697 563.26 261.522 561.034 264.313C552.525 274.976 543.63 285.353 535.584 296.358C527.411 307.529 518.23 317.712 508.167 327.107C500.269 334.482 492.124 341.593 483.951 348.665C473.634 357.59 463.384 366.61 452.72 375.111C442.486 383.269 431.811 390.876 421.235 398.6C410.505 406.433 399.797 414.305 388.831 421.796C380.206 427.688 371.361 433.298 362.322 438.522C354.403 443.1 346.043 446.912 337.931 451.165C332.1 454.222 326.357 457.443 320.571 460.588V460.577ZM267.67 287.46C268.795 291.355 269.809 295.133 270.971 298.868C274.835 311.286 281.431 322.032 291.065 330.786C309.262 347.319 332.645 346.938 349.972 329.937C359.666 320.421 365.86 308.798 370.104 296.06C371.658 291.399 372.782 286.6 374.138 281.74C377.538 282.12 380.636 284.713 384.741 283.257C378.96 275.887 372.044 270.387 365.188 264.843C363.645 263.596 361.76 262.438 359.694 264.065C357.572 265.736 358.117 267.722 359.126 269.747C359.242 269.984 359.231 270.282 359.346 270.911C356.211 272.009 353.113 273.57 349.845 274.143C340.471 275.782 331.064 277.591 321.596 278.281C309.279 279.18 297.088 277.784 285.399 273.255C282.776 272.24 281.266 271.071 281.977 267.937C282.164 267.127 281.266 265.466 280.522 265.207C279.75 264.937 278.218 265.621 277.59 266.365C273.292 271.468 269.065 276.637 264.975 281.911C262.611 284.961 260.544 288.243 258.346 291.421C258.588 291.702 258.831 291.984 259.068 292.265C261.856 290.709 264.65 289.148 267.665 287.466L267.67 287.46ZM217.459 51.2854C217.029 51.313 215.933 51.3626 214.836 51.4454C214.378 51.4785 213.927 51.5612 213.475 51.6495C203.119 53.6354 193.784 58.0265 185.225 64.0449C163.297 79.4688 147.811 99.9899 138.012 124.841C134.838 132.89 132.479 141.231 132.633 150.007C132.749 156.82 137.907 162.392 144.008 162.668C150.765 162.971 156.408 158.282 157.301 151.287C158.86 139.046 163.016 127.699 169.651 117.422C182.602 97.3641 197.741 79.9432 223.053 75.4142C227.07 74.6971 229.969 71.6465 231.237 67.5754C233.97 58.7767 227.875 51.2578 217.459 51.2854ZM286.375 211.311C286.639 211.267 286.909 211.229 287.174 211.184C285.785 202.711 284.738 194.166 282.897 185.792C281.52 179.515 278.632 173.722 274.129 168.918C268.089 162.469 259.525 161.989 253.11 168.007C245.406 175.239 242.744 184.844 241.25 194.839C239.845 204.25 240.17 213.689 241.234 223.128C242.308 232.671 244.855 241.569 251.065 249.215C258.775 258.708 273.137 257.385 278.417 246.429C283.751 235.357 286.298 223.596 286.375 211.306V211.311ZM391.487 209.546C390.974 203.517 390.511 197.482 389.922 191.458C389.773 189.924 389.26 188.413 388.842 186.918C386.83 179.735 384.449 172.713 379.203 167.119C372.771 160.251 364.323 159.887 357.605 166.391C351.444 172.36 348.721 180.149 347.002 188.297C344.786 198.822 344.979 209.48 346.076 220.105C347.018 229.295 349.107 238.121 354.833 245.778C358.691 250.936 363.54 253.997 369.95 253.628C376.083 253.275 380.663 249.849 383.336 244.399C388.715 233.449 391.266 221.787 391.476 209.557L391.487 209.546ZM402.707 74.2448C402.74 80.2301 406.245 84.8749 411.635 85.8623C416.931 86.8332 421.142 84.5605 424.735 80.9693C434.148 71.5638 445.76 66.097 458.259 62.3348C462.001 61.2094 466.035 61.0605 469.826 60.0675C478.6 57.7672 481.565 46.5247 475.332 39.9547C470.989 35.376 465.528 35.1609 460.011 36.1483C441.483 39.4692 425.033 47.3853 410.61 59.4552C406.064 63.2616 402.691 67.8953 402.702 74.2392L402.707 74.2448ZM401.671 271.126C409.789 271.424 422.189 267.171 427.981 262.068C430.825 259.558 433.211 256.662 432.34 252.602C431.585 249.055 428.78 247.245 425.462 246.186C420.243 244.515 415.002 245.099 409.772 246.032C403.021 247.24 396.739 249.634 391.355 253.992C388.39 256.392 386.119 259.426 386.83 263.436C387.557 267.557 390.848 269.405 394.628 270.227C396.932 270.729 399.318 270.839 401.666 271.126H401.671ZM236.401 275.831C241.135 275.429 246.1 274.905 250.625 272.268C256.681 268.737 257.315 261.599 251.534 257.66C248.712 255.741 245.488 254.163 242.22 253.203C234.29 250.87 226.282 250.925 218.622 254.406C215.685 255.741 213.078 257.804 212.56 261.362C211.959 265.505 214.048 268.302 217.305 270.574C222.981 274.524 229.473 275.357 236.39 275.831H236.401ZM409.084 137.877C408.621 136.376 408.428 135.483 408.075 134.655C406.163 130.242 403.021 126.866 399.087 124.185C386.444 115.568 367.569 117.24 355.439 124.521C352.904 126.044 352.281 128.637 353.593 130.909C354.789 132.984 357.219 133.491 359.881 132.46C363.706 130.981 367.486 129.111 371.465 128.388C383.187 126.259 393.857 127.555 400.343 139.454C400.558 139.846 400.872 140.365 401.236 140.458C402.829 140.861 404.664 141.738 406.003 141.275C407.331 140.817 408.174 138.952 409.084 137.877ZM284.203 126.965C283.581 126.171 282.699 124.411 281.283 123.346C277.386 120.412 272.79 119.022 267.979 118.702C256.136 117.907 245.527 121.454 236.285 128.753C233.342 131.075 230.967 134.197 228.652 137.198C227.302 138.947 228.084 140.966 229.672 142.367C231.286 143.801 233.188 143.857 235.017 142.726C235.695 142.306 236.279 141.672 236.786 141.038C241.735 134.892 248.161 131.02 255.684 129.039C263.256 127.048 270.624 126.905 277.552 131.654C280.362 133.585 284.06 131.279 284.198 126.96L284.203 126.965Z" fill="#CE2834"/>
<path d="M320.571 460.577C326.352 457.432 332.1 454.211 337.931 451.154C346.043 446.901 354.403 443.089 362.322 438.511C371.361 433.287 380.206 427.677 388.831 421.785C399.797 414.294 410.505 406.422 421.235 398.588C431.811 390.865 442.486 383.258 452.72 375.099C463.384 366.604 473.634 357.579 483.951 348.654C492.124 341.582 500.269 334.471 508.167 327.096C518.23 317.696 527.411 307.518 535.584 296.347C543.63 285.347 552.525 274.965 561.034 264.302C563.26 261.511 565.448 258.681 567.653 255.873C574.123 264.512 582.99 268.616 593.538 268.599C600.934 268.583 608.33 267.59 615.726 267.027C616.448 266.972 617.164 266.884 618.095 266.796C618.057 267.369 618.189 267.91 617.98 268.18C610.413 278.027 602.967 287.979 595.18 297.643C588.297 306.188 581.221 314.595 573.858 322.727C566.484 330.869 558.758 338.702 550.993 346.48C538.56 358.942 526.028 371.304 513.441 383.611C498.445 398.28 481.355 410.256 463.742 421.465C448.934 430.893 433.955 440.072 418.783 448.904C406.978 455.783 394.755 461.945 382.73 468.448C374.281 473.022 365.877 477.677 357.379 482.151C356.442 482.642 354.717 482.653 353.852 482.107C342.846 475.134 331.929 468.018 320.995 460.935C320.841 460.836 320.72 460.698 320.582 460.577L320.571 460.577Z" fill="#A41E28"/>
<path d="M596.795 197.068C598.487 191.005 600.295 184.97 601.816 178.864C602.449 176.315 602.731 173.612 602.708 170.986C602.631 160.803 602.846 150.581 602.047 140.447C601.265 130.507 599.082 120.726 595.037 111.481C592.282 105.186 590.05 98.6218 586.842 92.5703C581.1 81.7305 573.853 71.961 564.181 64.1828C562.842 63.1071 561.839 61.6066 560.505 60.5254C556.746 57.4748 552.69 54.7663 549.125 51.5116C541.26 44.3292 531.599 40.6994 521.883 37.1578C515.265 34.7472 508.602 32.4027 501.812 30.5436C497.266 29.2969 492.493 28.6681 487.781 28.2819C481.857 27.7965 475.894 27.7413 469.942 27.6916C464.585 27.6475 459.229 27.8737 453.877 27.9785C456.093 27.3386 458.27 26.4504 460.529 26.0974C469.534 24.6742 478.528 23.0358 487.588 22.2194C494.014 21.6401 500.55 22.1311 507.026 22.3793C511.308 22.5448 515.573 23.2785 519.855 23.4936C530.034 24.0012 539.794 26.5001 549.593 29.0708C559.155 31.5752 568.099 35.3595 576.68 40.1808C587.217 46.1 596.542 53.6299 604.841 62.3017C610.215 67.9119 614.662 74.3992 619.677 80.3625C629.117 91.5994 634.998 104.916 641.6 117.802C645.055 124.544 646.747 131.842 648.213 139.3C650.886 152.887 651.735 166.529 651.112 180.287C650.914 184.695 649.861 189.069 649.205 193.394C643.749 193.002 638.828 192.71 633.923 192.285C624.918 191.502 615.968 191.866 607.145 193.83C603.623 194.613 600.234 195.976 596.784 197.073L596.795 197.068Z" fill="#A41E28"/>
<path d="M666.03 274.248C666.168 274.028 666.306 273.807 666.444 273.592C667.992 273.41 669.541 273.084 671.095 273.073C677.863 273.029 684.636 273.106 691.409 273.073C693.883 273.062 695.994 273.983 696.583 276.317C698.138 282.468 699.912 288.646 698.711 295.133C696.732 295.944 694.809 297.279 692.775 297.478C685.71 298.173 678.965 296.182 672.363 294.014C668.824 292.855 666.741 290.047 666.537 286.131C666.449 284.691 666.355 283.257 666.267 281.817C666.24 279.461 666.218 277.1 666.19 274.745C666.074 274.601 666.025 274.436 666.036 274.254L666.03 274.248Z" fill="#CE2834"/>
<path d="M699.78 272.582C700.496 276.907 701.29 281.221 701.896 285.557C702.139 287.261 701.979 289.027 702.007 290.764C700.904 292.221 699.802 293.677 698.705 295.128C699.907 288.646 698.132 282.462 696.578 276.311C695.988 273.978 693.878 273.057 691.403 273.068C684.636 273.106 677.863 273.024 671.089 273.068C669.535 273.079 667.987 273.404 666.438 273.586C666.526 269.945 668.538 268.484 672.247 268.759C678.419 269.223 684.608 269.394 690.792 269.675C691.332 269.697 691.888 269.625 692.428 269.543C695.503 269.052 698.237 269.366 699.78 272.582Z" fill="#A41E28"/>
<path d="M267.67 287.46C264.656 289.143 261.867 290.704 259.073 292.259C258.831 291.978 258.588 291.697 258.351 291.415C260.55 288.238 262.617 284.956 264.981 281.905C269.07 276.631 273.297 271.462 277.596 266.36C278.224 265.615 279.756 264.931 280.527 265.201C281.277 265.461 282.17 267.121 281.982 267.932C281.272 271.065 282.782 272.235 285.405 273.25C297.094 277.779 309.284 279.169 321.601 278.275C331.069 277.586 340.477 275.782 349.851 274.138C353.119 273.564 356.216 272.003 359.352 270.905C359.236 270.276 359.247 269.979 359.132 269.741C358.123 267.722 357.583 265.736 359.699 264.059C361.76 262.432 363.651 263.591 365.194 264.837C372.049 270.381 378.966 275.887 384.747 283.251C380.647 284.707 377.549 282.115 374.144 281.734C372.788 286.594 371.664 291.393 370.109 296.055C365.861 308.792 359.672 320.421 349.978 329.931C332.651 346.933 309.268 347.313 291.07 330.781C281.437 322.026 274.84 311.286 270.977 298.863C269.814 295.128 268.8 291.349 267.676 287.455L267.67 287.46ZM365.271 278.717C336.217 288.784 307.328 291.553 277.921 280.399C278.064 282.269 278.103 284.36 278.411 286.406C278.863 289.391 280.379 291.393 283.344 292.739C291.588 296.474 300.307 298.173 309.179 298.405C317.485 298.62 325.867 298.156 334.128 297.186C343.039 296.143 351.686 293.611 359.809 289.628C361.071 289.01 362.719 288.199 363.155 287.079C364.196 284.398 364.615 281.475 365.271 278.717ZM309.637 331.608C324.417 338.504 342.714 329.236 352.524 311.887C339.446 306.525 318.499 316.592 309.637 331.608Z" fill="#030303"/>
<path d="M286.38 211.311C286.303 223.602 283.763 235.363 278.422 246.434C273.143 257.39 258.781 258.708 251.071 249.22C244.86 241.574 242.319 232.671 241.239 223.133C240.176 213.694 239.851 204.256 241.256 194.845C242.749 184.844 245.417 175.239 253.116 168.013C259.53 161.995 268.095 162.469 274.135 168.923C278.637 173.728 281.52 179.52 282.903 185.798C284.743 194.172 285.791 202.717 287.179 211.19C286.915 211.234 286.645 211.273 286.38 211.317V211.311ZM249.561 185.594C249.638 187.491 250.448 189.439 252.785 190.399C254.918 191.27 257.111 190.834 258.175 188.964C260.341 185.169 263.421 182.521 266.915 180.061C269.246 178.422 269.577 175.228 268.271 172.851C266.97 170.479 264.204 169.37 261.415 170.098C256.003 171.516 249.655 179.559 249.561 185.594Z" fill="#030303"/>
<path d="M391.487 209.546C391.277 221.782 388.726 233.438 383.347 244.388C380.669 249.838 376.094 253.258 369.961 253.617C363.546 253.986 358.696 250.925 354.844 245.767C349.118 238.11 347.029 229.284 346.087 220.094C344.996 209.469 344.797 198.811 347.013 188.286C348.727 180.138 351.449 172.349 357.616 166.38C364.334 159.876 372.777 160.24 379.214 167.108C384.455 172.707 386.836 179.724 388.853 186.907C389.271 188.407 389.784 189.913 389.933 191.447C390.522 197.471 390.985 203.506 391.498 209.535L391.487 209.546ZM354.607 182.819C354.469 185.34 355.279 187.409 357.715 188.402C359.782 189.246 362.041 188.915 363.127 187C365.282 183.2 368.362 180.552 371.851 178.091C374.232 176.409 374.562 173.331 373.245 170.898C371.945 168.498 369.239 167.401 366.417 168.134C360.994 169.547 354.811 177.231 354.607 182.819Z" fill="#030303"/>
<path d="M401.666 271.126C399.318 270.839 396.926 270.729 394.628 270.227C390.848 269.405 387.557 267.557 386.83 263.436C386.119 259.426 388.395 256.386 391.355 253.992C396.739 249.634 403.021 247.245 409.772 246.032C415.002 245.094 420.243 244.515 425.462 246.186C428.775 247.245 431.58 249.055 432.34 252.602C433.205 256.662 430.825 259.564 427.981 262.068C422.189 267.176 409.789 271.429 401.671 271.126H401.666Z" fill="#A41E28"/>
<path d="M236.395 275.837C229.479 275.357 222.981 274.53 217.31 270.58C214.048 268.307 211.965 265.516 212.565 261.367C213.078 257.804 215.685 255.746 218.628 254.411C226.282 250.936 234.29 250.881 242.226 253.209C245.494 254.168 248.718 255.746 251.539 257.666C257.321 261.605 256.692 268.743 250.63 272.273C246.106 274.91 241.14 275.434 236.406 275.837H236.395Z" fill="#A41E28"/>
<path d="M409.078 137.882C408.169 138.958 407.326 140.822 405.997 141.28C404.653 141.744 402.818 140.867 401.23 140.464C400.867 140.37 400.552 139.852 400.338 139.46C393.851 127.561 383.182 126.265 371.46 128.394C367.481 129.117 363.7 130.992 359.875 132.465C357.219 133.491 354.789 132.989 353.587 130.915C352.276 128.637 352.899 126.044 355.434 124.527C367.563 117.245 386.439 115.574 399.081 124.19C403.01 126.871 406.157 130.248 408.07 134.661C408.428 135.483 408.615 136.382 409.078 137.882Z" fill="#030303"/>
<path d="M284.203 126.971C284.066 131.29 280.368 133.596 277.557 131.665C270.63 126.916 263.261 127.059 255.689 129.05C248.161 131.031 241.735 134.903 236.792 141.049C236.285 141.678 235.701 142.317 235.023 142.737C233.193 143.862 231.292 143.807 229.677 142.378C228.09 140.971 227.307 138.958 228.658 137.209C230.972 134.203 233.347 131.086 236.29 128.764C245.532 121.465 256.141 117.918 267.984 118.713C272.796 119.033 277.392 120.423 281.288 123.357C282.699 124.422 283.586 126.182 284.209 126.976L284.203 126.971Z" fill="#030303"/>
<path d="M652.622 362.991C652.352 363.907 652.335 364.536 652.021 364.927C649.696 367.851 647.436 370.846 644.862 373.538C644.19 374.244 642.487 373.963 641.253 374.14C641.291 372.954 640.906 371.503 641.451 370.637C643.336 367.619 645.441 364.718 647.706 361.981C648.285 361.281 649.822 360.994 650.82 361.148C651.536 361.259 652.093 362.423 652.622 363.002V362.991Z" fill="#030303"/>
<path d="M671.023 373.61C671.023 372.33 670.687 370.924 671.117 369.815C671.53 368.739 672.627 367.432 673.625 367.244C674.369 367.101 676.171 368.518 676.215 369.313C676.413 372.843 676.22 376.401 675.978 379.932C675.939 380.456 674.721 381.41 674.308 381.289C673.294 380.986 671.894 380.351 671.624 379.524C671.012 377.665 670.99 375.613 670.731 373.638C670.825 373.627 670.924 373.621 671.018 373.61H671.023Z" fill="#030303"/>
<path d="M52.3098 349.856C48.8489 348.974 45.8398 348.582 43.1504 347.44C37.6835 345.129 32.3764 342.431 27.0251 339.861C25.0081 338.89 23.8838 337.273 24.3413 334.979C24.8207 332.59 26.4961 331.426 28.8713 331.343C35.4846 331.117 49.8904 341.019 51.9957 347.231C52.161 347.722 52.1334 348.284 52.3098 349.856Z" fill="#030303"/>
<path d="M309.642 331.603C318.504 316.581 339.446 306.519 352.529 311.881C342.72 329.23 324.423 338.504 309.642 331.603Z" fill="#CE2834"/>
</svg>
